<svg xmlns="http://www.w3.org/2000/svg" xmlns:xlink="http://www.w3.org/1999/xlink" width="100" zoomAndPan="magnify" viewBox="0 0 75 74.999997" height="100" preserveAspectRatio="xMidYMid meet" version="1.0"><defs><clipPath id="bc1b5de0f3"><path d="M 2.382812 2.382812 L 72.882812 2.382812 L 72.882812 72.882812 L 2.382812 72.882812 Z M 2.382812 2.382812 " clip-rule="nonzero"/></clipPath></defs><g clip-path="url(#bc1b5de0f3)"><path fill="#5a66ff" d="M 72.871094 37.632812 C 72.871094 38.785156 72.8125 39.9375 72.699219 41.085938 C 72.585938 42.234375 72.417969 43.375 72.191406 44.507812 C 71.96875 45.640625 71.6875 46.757812 71.351562 47.863281 C 71.019531 48.96875 70.628906 50.054688 70.1875 51.121094 C 69.746094 52.1875 69.253906 53.230469 68.710938 54.246094 C 68.164062 55.265625 67.574219 56.253906 66.929688 57.214844 C 66.289062 58.175781 65.605469 59.101562 64.871094 59.992188 C 64.140625 60.886719 63.367188 61.738281 62.550781 62.554688 C 61.734375 63.371094 60.878906 64.148438 59.988281 64.878906 C 59.09375 65.613281 58.167969 66.300781 57.210938 66.941406 C 56.25 67.582031 55.261719 68.175781 54.242188 68.71875 C 53.226562 69.261719 52.183594 69.757812 51.117188 70.199219 C 50.050781 70.640625 48.964844 71.027344 47.859375 71.363281 C 46.757812 71.699219 45.636719 71.976562 44.507812 72.203125 C 43.375 72.429688 42.234375 72.597656 41.085938 72.710938 C 39.9375 72.824219 38.785156 72.882812 37.632812 72.882812 C 36.476562 72.882812 35.328125 72.824219 34.179688 72.710938 C 33.027344 72.597656 31.890625 72.429688 30.757812 72.203125 C 29.625 71.976562 28.507812 71.699219 27.402344 71.363281 C 26.296875 71.027344 25.210938 70.640625 24.148438 70.199219 C 23.082031 69.757812 22.039062 69.261719 21.019531 68.71875 C 20.003906 68.175781 19.015625 67.582031 18.054688 66.941406 C 17.09375 66.300781 16.167969 65.613281 15.277344 64.878906 C 14.382812 64.148438 13.53125 63.371094 12.714844 62.554688 C 11.898438 61.738281 11.125 60.886719 10.390625 59.992188 C 9.660156 59.101562 8.972656 58.175781 8.332031 57.214844 C 7.691406 56.253906 7.097656 55.265625 6.554688 54.246094 C 6.011719 53.230469 5.515625 52.1875 5.074219 51.121094 C 4.632812 50.054688 4.246094 48.96875 3.910156 47.863281 C 3.574219 46.757812 3.296875 45.640625 3.070312 44.507812 C 2.84375 43.375 2.675781 42.234375 2.5625 41.085938 C 2.449219 39.9375 2.394531 38.785156 2.394531 37.632812 C 2.394531 36.476562 2.449219 35.324219 2.5625 34.175781 C 2.675781 33.027344 2.84375 31.886719 3.070312 30.753906 C 3.296875 29.621094 3.574219 28.503906 3.910156 27.398438 C 4.246094 26.292969 4.632812 25.207031 5.074219 24.140625 C 5.515625 23.074219 6.011719 22.03125 6.554688 21.015625 C 7.097656 19.996094 7.691406 19.007812 8.332031 18.046875 C 8.972656 17.085938 9.660156 16.160156 10.390625 15.269531 C 11.125 14.375 11.898438 13.523438 12.714844 12.707031 C 13.53125 11.890625 14.382812 11.113281 15.277344 10.382812 C 16.167969 9.648438 17.09375 8.964844 18.054688 8.320312 C 19.015625 7.679688 20.003906 7.085938 21.019531 6.542969 C 22.039062 6 23.082031 5.507812 24.148438 5.0625 C 25.210938 4.621094 26.296875 4.234375 27.402344 3.898438 C 28.507812 3.5625 29.625 3.285156 30.757812 3.058594 C 31.890625 2.832031 33.027344 2.664062 34.179688 2.550781 C 35.328125 2.4375 36.476562 2.382812 37.632812 2.382812 C 38.785156 2.382812 39.9375 2.4375 41.085938 2.550781 C 42.234375 2.664062 43.375 2.832031 44.507812 3.058594 C 45.636719 3.285156 46.757812 3.5625 47.859375 3.898438 C 48.964844 4.234375 50.050781 4.621094 51.117188 5.0625 C 52.183594 5.507812 53.226562 6 54.242188 6.542969 C 55.261719 7.085938 56.25 7.679688 57.210938 8.320312 C 58.167969 8.964844 59.09375 9.648438 59.988281 10.382812 C 60.878906 11.113281 61.734375 11.890625 62.550781 12.707031 C 63.367188 13.523438 64.140625 14.375 64.871094 15.269531 C 65.605469 16.160156 66.289062 17.085938 66.929688 18.046875 C 67.574219 19.007812 68.164062 19.996094 68.710938 21.015625 C 69.253906 22.03125 69.746094 23.074219 70.1875 24.140625 C 70.628906 25.207031 71.019531 26.292969 71.351562 27.398438 C 71.6875 28.503906 71.96875 29.621094 72.191406 30.753906 C 72.417969 31.886719 72.585938 33.027344 72.699219 34.175781 C 72.8125 35.324219 72.871094 36.476562 72.871094 37.632812 Z M 72.871094 37.632812 " fill-opacity="1" fill-rule="nonzero"/></g><path fill="#ffffff" d="M 18.261719 45.617188 C 18.261719 45.617188 18.082031 51.433594 27.03125 52.777344 C 27.03125 52.777344 33.566406 60.925781 41.890625 52.507812 C 41.890625 52.507812 44.488281 57.167969 50.394531 54.75 C 50.394531 54.75 53.441406 59.582031 61.226562 55.644531 C 61.226562 55.644531 58.542969 54.835938 58.898438 52.507812 C 59.257812 50.179688 58.003906 48.121094 57.109375 46.957031 C 57.109375 46.957031 59.707031 46.332031 59.976562 42.035156 C 59.976562 42.035156 70.449219 35.40625 60.15625 27.707031 C 60.15625 27.707031 58.992188 19.289062 49.058594 20.632812 C 49.058594 20.632812 44.132812 14.1875 35.898438 19.558594 C 35.898438 19.558594 28.023438 16.15625 23.1875 22.78125 C 23.1875 22.78125 14.695312 24.414062 16.078125 32.953125 Z M 18.261719 45.617188 " fill-opacity="1" fill-rule="nonzero"/><path fill="#ff9b82" d="M 16.085938 32.957031 C 16.511719 32.957031 16.929688 33 17.347656 33.082031 C 17.761719 33.167969 18.167969 33.289062 18.558594 33.453125 C 18.953125 33.617188 19.324219 33.816406 19.675781 34.054688 C 20.027344 34.289062 20.355469 34.558594 20.65625 34.859375 C 20.953125 35.160156 21.222656 35.488281 21.457031 35.839844 C 21.691406 36.195312 21.890625 36.566406 22.050781 36.960938 C 22.214844 37.351562 22.335938 37.757812 22.417969 38.171875 C 22.5 38.589844 22.539062 39.011719 22.539062 39.433594 C 22.539062 39.859375 22.496094 40.28125 22.414062 40.695312 C 22.328125 41.113281 22.207031 41.515625 22.042969 41.910156 C 21.878906 42.300781 21.679688 42.671875 21.445312 43.027344 C 21.207031 43.378906 20.9375 43.703125 20.636719 44.003906 C 20.335938 44.304688 20.011719 44.570312 19.65625 44.808594 C 19.304688 45.042969 18.929688 45.242188 18.539062 45.402344 C 18.144531 45.566406 17.742188 45.6875 17.324219 45.769531 C 16.910156 45.851562 16.488281 45.890625 16.0625 45.890625 C 15.640625 45.890625 15.21875 45.847656 14.800781 45.765625 C 14.386719 45.679688 13.980469 45.558594 13.589844 45.394531 C 13.199219 45.230469 12.824219 45.03125 12.472656 44.792969 C 12.121094 44.558594 11.792969 44.289062 11.496094 43.988281 C 11.195312 43.6875 10.929688 43.359375 10.691406 43.007812 C 10.457031 42.652344 10.257812 42.28125 10.097656 41.886719 C 9.933594 41.496094 9.8125 41.089844 9.730469 40.675781 C 9.648438 40.257812 9.609375 39.835938 9.609375 39.414062 C 9.609375 38.988281 9.652344 38.566406 9.734375 38.152344 C 9.820312 37.734375 9.941406 37.332031 10.105469 36.9375 C 10.269531 36.546875 10.46875 36.175781 10.707031 35.820312 C 10.941406 35.46875 11.210938 35.144531 11.511719 34.84375 C 11.8125 34.542969 12.140625 34.277344 12.492188 34.039062 C 12.84375 33.804688 13.21875 33.605469 13.609375 33.445312 C 14.003906 33.285156 14.40625 33.160156 14.824219 33.078125 C 15.242188 32.996094 15.660156 32.957031 16.085938 32.957031 Z M 16.085938 32.957031 " fill-opacity="1" fill-rule="nonzero"/><path fill="#ff9b82" d="M 41.757812 38.835938 C 41.757812 39.261719 41.71875 39.683594 41.632812 40.097656 C 41.550781 40.515625 41.429688 40.917969 41.265625 41.3125 C 41.105469 41.703125 40.90625 42.078125 40.667969 42.429688 C 40.433594 42.785156 40.164062 43.109375 39.863281 43.410156 C 39.566406 43.710938 39.238281 43.976562 38.886719 44.214844 C 38.53125 44.449219 38.160156 44.648438 37.769531 44.8125 C 37.375 44.972656 36.972656 45.097656 36.554688 45.179688 C 36.136719 45.261719 35.71875 45.304688 35.292969 45.304688 C 34.867188 45.304688 34.449219 45.261719 34.03125 45.179688 C 33.617188 45.097656 33.210938 44.972656 32.820312 44.8125 C 32.425781 44.648438 32.054688 44.449219 31.703125 44.214844 C 31.347656 43.976562 31.023438 43.710938 30.722656 43.410156 C 30.421875 43.109375 30.152344 42.785156 29.917969 42.429688 C 29.683594 42.078125 29.484375 41.703125 29.320312 41.3125 C 29.15625 40.917969 29.035156 40.515625 28.953125 40.097656 C 28.871094 39.683594 28.828125 39.261719 28.828125 38.835938 C 28.828125 38.414062 28.871094 37.992188 28.953125 37.574219 C 29.035156 37.160156 29.15625 36.753906 29.320312 36.363281 C 29.484375 35.96875 29.683594 35.597656 29.917969 35.246094 C 30.152344 34.890625 30.421875 34.566406 30.722656 34.265625 C 31.023438 33.964844 31.347656 33.695312 31.703125 33.460938 C 32.054688 33.226562 32.425781 33.027344 32.820312 32.863281 C 33.210938 32.699219 33.617188 32.578125 34.03125 32.496094 C 34.449219 32.414062 34.867188 32.371094 35.292969 32.371094 C 35.71875 32.371094 36.136719 32.414062 36.554688 32.496094 C 36.972656 32.578125 37.375 32.699219 37.769531 32.863281 C 38.160156 33.027344 38.53125 33.226562 38.886719 33.460938 C 39.238281 33.695312 39.566406 33.964844 39.863281 34.265625 C 40.164062 34.566406 40.433594 34.890625 40.667969 35.246094 C 40.90625 35.597656 41.105469 35.96875 41.265625 36.363281 C 41.429688 36.753906 41.550781 37.160156 41.632812 37.574219 C 41.71875 37.992188 41.757812 38.414062 41.757812 38.835938 Z M 41.757812 38.835938 " fill-opacity="1" fill-rule="nonzero"/><path fill="#0e0e5e" d="M 61.054688 42.691406 C 68.261719 39.617188 67.820312 29.035156 60.382812 26.578125 C 59.773438 21.390625 54.199219 17.863281 49.195312 19.546875 C 46.246094 14.867188 39.195312 14.382812 35.605469 18.488281 C 31.085938 16.273438 25.058594 17.503906 22.636719 22.050781 C 17.664062 22.050781 14.105469 27.214844 14.699219 31.988281 C 5.652344 34.78125 8.085938 48.011719 17.625 47.304688 C 18.289062 51.203125 23.035156 54.515625 26.898438 54.113281 C 28.140625 55.589844 29.691406 56.566406 31.5625 57.046875 C 32.398438 57.269531 33.253906 57.378906 34.121094 57.378906 C 36.75 57.378906 39.570312 56.359375 41.570312 53.890625 C 43.59375 56.152344 47.054688 57.019531 49.914062 55.941406 C 51.964844 57.847656 54.1875 58.5 56.171875 58.5 C 58.597656 58.5 60.675781 57.523438 61.675781 56.636719 C 61.8125 56.519531 61.910156 56.375 61.976562 56.207031 C 62.042969 56.039062 62.066406 55.867188 62.050781 55.6875 C 62.03125 55.507812 61.972656 55.339844 61.875 55.191406 C 61.777344 55.039062 61.652344 54.917969 61.496094 54.828125 C 60.082031 54.011719 60.0625 53.265625 60.003906 51.78125 C 59.960938 50.546875 59.90625 49.054688 58.90625 47.394531 C 59.582031 46.800781 60.105469 46.09375 60.480469 45.273438 C 60.855469 44.453125 61.046875 43.589844 61.054688 42.691406 Z M 11.242188 39.515625 C 11.242188 39.148438 11.28125 38.785156 11.351562 38.425781 C 11.421875 38.0625 11.53125 37.714844 11.671875 37.375 C 11.8125 37.035156 11.984375 36.714844 12.1875 36.40625 C 12.390625 36.101562 12.621094 35.820312 12.882812 35.558594 C 13.140625 35.300781 13.425781 35.070312 13.730469 34.863281 C 14.035156 34.660156 14.359375 34.488281 14.699219 34.347656 C 15.039062 34.207031 15.386719 34.101562 15.746094 34.027344 C 16.109375 33.957031 16.472656 33.921875 16.839844 33.921875 C 24.242188 34.207031 24.242188 44.824219 16.839844 45.109375 C 16.472656 45.109375 16.109375 45.074219 15.746094 45.003906 C 15.386719 44.929688 15.039062 44.824219 14.699219 44.683594 C 14.359375 44.542969 14.035156 44.371094 13.730469 44.167969 C 13.425781 43.964844 13.140625 43.730469 12.882812 43.472656 C 12.621094 43.210938 12.390625 42.929688 12.1875 42.625 C 11.984375 42.320312 11.8125 41.996094 11.671875 41.65625 C 11.53125 41.316406 11.421875 40.96875 11.351562 40.609375 C 11.28125 40.246094 11.242188 39.882812 11.242188 39.515625 Z M 58.773438 42.085938 C 58.816406 42.363281 58.828125 42.648438 58.808594 42.929688 C 58.792969 43.210938 58.746094 43.488281 58.671875 43.761719 C 58.597656 44.035156 58.496094 44.296875 58.367188 44.550781 C 58.238281 44.800781 58.085938 45.039062 57.90625 45.257812 C 57.730469 45.476562 57.53125 45.679688 57.3125 45.855469 C 57.09375 46.035156 56.859375 46.191406 56.605469 46.324219 C 56.355469 46.453125 56.09375 46.558594 55.820312 46.632812 C 55.550781 46.710938 55.273438 46.757812 54.988281 46.777344 C 54.707031 46.796875 54.425781 46.789062 54.144531 46.75 C 53.867188 46.710938 53.59375 46.644531 53.324219 46.546875 C 53.058594 46.453125 52.804688 46.332031 52.5625 46.183594 C 52.324219 46.035156 52.097656 45.867188 51.890625 45.671875 C 51.6875 45.476562 51.503906 45.265625 51.339844 45.03125 C 51.175781 44.800781 51.039062 44.554688 50.929688 44.292969 C 50.816406 44.035156 50.734375 43.765625 50.679688 43.488281 C 50.621094 43.210938 50.597656 42.929688 50.597656 42.648438 C 50.597656 42.5 50.570312 42.355469 50.511719 42.21875 C 50.457031 42.082031 50.375 41.960938 50.269531 41.855469 C 50.167969 41.753906 50.046875 41.671875 49.910156 41.613281 C 49.769531 41.558594 49.628906 41.53125 49.480469 41.53125 C 49.332031 41.53125 49.191406 41.558594 49.054688 41.613281 C 48.917969 41.671875 48.796875 41.753906 48.691406 41.855469 C 48.585938 41.960938 48.503906 42.082031 48.449219 42.21875 C 48.390625 42.355469 48.363281 42.5 48.363281 42.648438 C 48.296875 47.03125 52.953125 50.207031 57 48.566406 C 57.695312 49.730469 57.734375 50.769531 57.773438 51.863281 C 57.816406 53.101562 57.863281 54.464844 58.980469 55.679688 C 57.394531 56.367188 54.667969 56.859375 52.007812 54.789062 C 52.269531 54.585938 52.519531 54.367188 52.75 54.132812 C 53.753906 53.046875 52.253906 51.542969 51.171875 52.554688 C 48.710938 55.113281 44.234375 54.511719 42.511719 51.414062 C 42.296875 51.042969 41.972656 50.855469 41.542969 50.855469 C 41.113281 50.855469 40.789062 51.042969 40.574219 51.417969 C 38.605469 54.847656 34.921875 55.632812 32.144531 54.890625 C 29.714844 54.242188 27.117188 52.148438 27.117188 48.214844 C 27.0625 46.734375 24.933594 46.734375 24.878906 48.214844 C 24.871094 49.46875 25.097656 50.679688 25.558594 51.847656 C 23.085938 51.589844 20.152344 49.222656 19.808594 46.765625 C 23.863281 45.203125 25.921875 40.023438 23.859375 36.058594 C 24.5625 35.757812 25.300781 35.605469 26.066406 35.605469 C 26.832031 35.605469 27.566406 35.757812 28.269531 36.058594 C 25.675781 41.125 29.570312 47.425781 35.289062 47.347656 C 35.800781 47.347656 36.308594 47.296875 36.8125 47.195312 C 37.316406 47.09375 37.808594 46.945312 38.28125 46.75 C 38.757812 46.554688 39.207031 46.3125 39.632812 46.027344 C 40.0625 45.742188 40.457031 45.414062 40.820312 45.050781 C 41.183594 44.6875 41.507812 44.292969 41.792969 43.867188 C 42.078125 43.441406 42.320312 42.988281 42.515625 42.515625 C 42.710938 42.039062 42.859375 41.550781 42.960938 41.046875 C 43.0625 40.542969 43.113281 40.035156 43.113281 39.519531 C 43.121094 32.421875 34.300781 29.027344 29.558594 34.191406 C 28.457031 33.644531 27.292969 33.371094 26.066406 33.371094 C 24.835938 33.371094 23.671875 33.644531 22.570312 34.191406 C 21.839844 33.40625 20.984375 32.792969 20.003906 32.359375 C 19.023438 31.925781 17.996094 31.703125 16.921875 31.691406 C 16.734375 29.71875 17.351562 27.691406 18.609375 26.242188 C 19.179688 25.5625 19.875 25.050781 20.691406 24.710938 C 21.507812 24.367188 22.359375 24.230469 23.242188 24.296875 C 23.476562 24.316406 23.691406 24.261719 23.894531 24.144531 C 24.09375 24.023438 24.246094 23.855469 24.339844 23.644531 C 24.726562 22.769531 25.273438 22.015625 25.988281 21.378906 C 26.699219 20.746094 27.515625 20.289062 28.425781 20.007812 C 30.292969 19.414062 32.417969 19.550781 34.308594 20.351562 C 33.933594 21.074219 33.667969 21.835938 33.511719 22.632812 C 32.617188 22.558594 31.734375 22.617188 30.859375 22.816406 C 29.988281 23.015625 29.164062 23.339844 28.390625 23.792969 C 27.621094 24.246094 26.933594 24.808594 26.335938 25.472656 C 25.734375 26.140625 25.253906 26.878906 24.882812 27.695312 C 24.816406 27.832031 24.78125 27.976562 24.773438 28.128906 C 24.765625 28.277344 24.789062 28.425781 24.839844 28.566406 C 24.890625 28.707031 24.96875 28.835938 25.070312 28.945312 C 25.171875 29.058594 25.292969 29.144531 25.429688 29.207031 C 25.570312 29.265625 25.714844 29.300781 25.863281 29.304688 C 26.015625 29.308594 26.160156 29.28125 26.300781 29.226562 C 26.441406 29.167969 26.566406 29.089844 26.675781 28.984375 C 26.78125 28.878906 26.863281 28.753906 26.921875 28.613281 C 28.136719 25.851562 31.296875 24.292969 34.222656 25.003906 C 34.382812 25.042969 34.546875 25.042969 34.707031 25.011719 C 34.871094 24.976562 35.019531 24.910156 35.148438 24.808594 C 35.28125 24.710938 35.386719 24.585938 35.464844 24.441406 C 35.542969 24.292969 35.585938 24.136719 35.59375 23.972656 C 35.65625 22.742188 36.042969 21.621094 36.753906 20.613281 C 36.785156 20.574219 36.816406 20.535156 36.84375 20.492188 C 39.566406 16.710938 45.628906 17.160156 47.710938 21.429688 C 47.773438 21.558594 47.859375 21.667969 47.96875 21.765625 C 48.078125 21.859375 48.199219 21.933594 48.335938 21.980469 C 48.472656 22.027344 48.613281 22.050781 48.757812 22.042969 C 48.902344 22.035156 49.039062 22.003906 49.171875 21.941406 C 53.195312 20.035156 58.105469 23.019531 58.21875 27.484375 C 58.230469 27.738281 58.316406 27.957031 58.476562 28.152344 C 58.636719 28.34375 58.835938 28.46875 59.082031 28.527344 C 65.371094 30.015625 65.695312 38.90625 59.546875 40.863281 C 59.285156 40.945312 59.082031 41.101562 58.9375 41.332031 C 58.792969 41.5625 58.738281 41.8125 58.773438 42.082031 Z M 35.28125 33.925781 C 35.648438 33.925781 36.011719 33.960938 36.371094 34.03125 C 36.730469 34.101562 37.082031 34.210938 37.421875 34.351562 C 37.761719 34.492188 38.082031 34.664062 38.390625 34.867188 C 38.695312 35.070312 38.976562 35.304688 39.238281 35.5625 C 39.496094 35.824219 39.726562 36.105469 39.933594 36.410156 C 40.136719 36.714844 40.308594 37.039062 40.449219 37.378906 C 40.589844 37.71875 40.695312 38.066406 40.769531 38.425781 C 40.839844 38.789062 40.875 39.152344 40.875 39.519531 C 40.59375 46.925781 29.972656 46.921875 29.695312 39.519531 C 29.695312 39.152344 29.730469 38.789062 29.804688 38.425781 C 29.875 38.066406 29.980469 37.71875 30.121094 37.378906 C 30.261719 37.039062 30.433594 36.714844 30.640625 36.410156 C 30.84375 36.105469 31.074219 35.824219 31.335938 35.5625 C 31.59375 35.304688 31.878906 35.070312 32.183594 34.867188 C 32.488281 34.664062 32.808594 34.492188 33.148438 34.351562 C 33.488281 34.210938 33.839844 34.101562 34.199219 34.03125 C 34.558594 33.960938 34.921875 33.925781 35.289062 33.925781 Z M 35.28125 33.925781 " fill-opacity="1" fill-rule="nonzero"/><path fill="#0e0e5e" d="M 52.589844 27.9375 C 52.78125 27.714844 52.871094 27.457031 52.859375 27.164062 C 52.847656 26.871094 52.738281 26.621094 52.53125 26.414062 C 52.324219 26.207031 52.074219 26.101562 51.78125 26.089844 C 51.492188 26.078125 51.234375 26.167969 51.011719 26.359375 C 48.609375 28.796875 44.355469 27.035156 44.378906 23.613281 C 44.386719 23.460938 44.359375 23.3125 44.304688 23.171875 C 44.253906 23.03125 44.171875 22.902344 44.066406 22.792969 C 43.960938 22.683594 43.839844 22.601562 43.699219 22.542969 C 43.558594 22.480469 43.414062 22.453125 43.261719 22.453125 C 43.109375 22.453125 42.964844 22.480469 42.824219 22.542969 C 42.683594 22.601562 42.5625 22.683594 42.457031 22.792969 C 42.351562 22.902344 42.269531 23.03125 42.214844 23.171875 C 42.164062 23.3125 42.136719 23.460938 42.144531 23.613281 C 42.105469 29.007812 48.8125 31.789062 52.59375 27.941406 Z M 52.589844 27.9375 " fill-opacity="1" fill-rule="nonzero"/><path fill="#0e0e5e" d="M 60.269531 34.238281 C 60.308594 34.097656 60.316406 33.953125 60.296875 33.804688 C 60.277344 33.65625 60.230469 33.519531 60.15625 33.390625 C 60.082031 33.261719 59.988281 33.152344 59.871094 33.0625 C 59.75 32.972656 59.621094 32.910156 59.476562 32.871094 C 58.347656 32.578125 57.210938 32.558594 56.074219 32.816406 C 54.933594 33.074219 53.917969 33.582031 53.023438 34.332031 C 51.519531 33.246094 49.269531 33.136719 47.644531 34.113281 C 47.523438 34.1875 47.414062 34.285156 47.328125 34.402344 C 47.242188 34.519531 47.179688 34.648438 47.144531 34.789062 C 47.109375 34.933594 47.101562 35.074219 47.121094 35.21875 C 47.140625 35.363281 47.1875 35.5 47.261719 35.625 C 47.332031 35.753906 47.425781 35.859375 47.542969 35.949219 C 47.65625 36.039062 47.785156 36.105469 47.925781 36.144531 C 48.066406 36.183594 48.207031 36.195312 48.355469 36.179688 C 48.5 36.164062 48.636719 36.121094 48.761719 36.050781 C 50.695312 34.902344 53.199219 36.523438 52.941406 38.757812 C 52.925781 38.90625 52.941406 39.050781 52.984375 39.191406 C 53.023438 39.335938 53.09375 39.464844 53.1875 39.578125 C 53.28125 39.691406 53.390625 39.785156 53.523438 39.855469 C 53.652344 39.925781 53.792969 39.96875 53.9375 39.984375 C 54.085938 40 54.230469 39.988281 54.375 39.945312 C 54.515625 39.902344 54.644531 39.835938 54.757812 39.742188 C 54.875 39.648438 54.964844 39.535156 55.039062 39.40625 C 55.109375 39.273438 55.152344 39.136719 55.164062 38.988281 C 55.277344 37.921875 55.066406 36.917969 54.535156 35.984375 C 55.144531 35.488281 55.835938 35.15625 56.605469 34.988281 C 57.371094 34.816406 58.136719 34.832031 58.902344 35.027344 C 59.042969 35.066406 59.1875 35.074219 59.335938 35.054688 C 59.484375 35.035156 59.621094 34.988281 59.75 34.914062 C 59.878906 34.839844 59.988281 34.746094 60.078125 34.628906 C 60.167969 34.507812 60.230469 34.378906 60.269531 34.234375 Z M 60.269531 34.238281 " fill-opacity="1" fill-rule="nonzero"/></svg>