<svg width="189" height="46" viewBox="0 0 189 46" fill="none" xmlns="http://www.w3.org/2000/svg">
<g clip-path="url(#clip0_41_8275)">
<path fill-rule="evenodd" clip-rule="evenodd" d="M4.6 0H41.4C42.6199 0 43.79 0.484641 44.6527 1.34731C45.5153 2.20998 46 3.38 46 4.6V41.4C46 42.6199 45.5153 43.79 44.6527 44.6527C43.79 45.5153 42.6199 46 41.4 46H4.6C3.38 46 2.20998 45.5153 1.34731 44.6527C0.484641 43.79 0 42.6199 0 41.4V4.6C0 3.38 0.484641 2.20998 1.34731 1.34731C2.20998 0.484641 3.38 0 4.6 0ZM6.44482 4.44482C5.34025 4.44482 4.44482 5.34025 4.44482 6.44482C4.44482 7.54939 5.34025 8.44482 6.44482 8.44482H6.48398C7.58855 8.44482 8.48398 7.54939 8.48398 6.44482C8.48398 5.34025 7.58855 4.44482 6.48398 4.44482H6.44482ZM13.4531 4.44482C12.3485 4.44482 11.4531 5.34025 11.4531 6.44482C11.4531 7.54939 12.3485 8.44482 13.4531 8.44482H13.4923C14.5968 8.44482 15.4923 7.54939 15.4923 6.44482C15.4923 5.34025 14.5968 4.44482 13.4923 4.44482H13.4531ZM20.4614 4.44482C19.3568 4.44482 18.4614 5.34025 18.4614 6.44482C18.4614 7.54939 19.3568 8.44482 20.4614 8.44482H20.5005C21.6051 8.44482 22.5005 7.54939 22.5005 6.44482C22.5005 5.34025 21.6051 4.44482 20.5005 4.44482H20.4614Z" fill="white"/>
<path d="M82.655 39H77.21V25.365H62.225V39H56.825V7.09497H62.225V20.28H77.21V7.09497H82.655V39Z" fill="white"/>
<path d="M85.1795 33.06C85.1795 29.145 88.0595 26.985 91.7945 26.445L97.4195 25.59C98.6795 25.41 99.0395 24.78 99.0395 24.015C99.0395 22.17 97.7795 20.685 94.8995 20.685C92.1545 20.685 90.6245 22.44 90.3995 24.645L85.6295 23.565C86.0345 19.785 89.4545 16.41 94.8545 16.41C101.605 16.41 104.17 20.235 104.17 24.6V35.49C104.17 37.47 104.395 38.775 104.44 39H99.5795C99.5345 38.865 99.3545 37.965 99.3545 36.21C98.3195 37.875 96.1595 39.675 92.6045 39.675C88.0145 39.675 85.1795 36.525 85.1795 33.06ZM93.5945 35.58C96.5195 35.58 99.0395 34.185 99.0395 29.91V28.92L93.3245 29.775C91.7045 30.045 90.3995 30.945 90.3995 32.745C90.3995 34.23 91.5245 35.58 93.5945 35.58Z" fill="white"/>
<path d="M126.86 17.085L118.265 39H113.045L104.135 17.085H109.895L115.7 32.745L121.37 17.085H126.86Z" fill="white"/>
<path d="M126.021 33.06C126.021 29.145 128.901 26.985 132.636 26.445L138.261 25.59C139.521 25.41 139.881 24.78 139.881 24.015C139.881 22.17 138.621 20.685 135.741 20.685C132.996 20.685 131.466 22.44 131.241 24.645L126.471 23.565C126.876 19.785 130.296 16.41 135.696 16.41C142.446 16.41 145.011 20.235 145.011 24.6V35.49C145.011 37.47 145.236 38.775 145.281 39H140.421C140.376 38.865 140.196 37.965 140.196 36.21C139.161 37.875 137.001 39.675 133.446 39.675C128.856 39.675 126.021 36.525 126.021 33.06ZM134.436 35.58C137.361 35.58 139.881 34.185 139.881 29.91V28.92L134.166 29.775C132.546 30.045 131.241 30.945 131.241 32.745C131.241 34.23 132.366 35.58 134.436 35.58Z" fill="white"/>
<path d="M153.341 26.355V39H148.121V17.085H153.206V20.01C154.646 17.49 157.256 16.455 159.686 16.455C165.041 16.455 167.606 20.325 167.606 25.14V39H162.386V26.04C162.386 23.34 161.171 21.18 157.886 21.18C154.916 21.18 153.341 23.475 153.341 26.355Z" fill="white"/>
<path d="M169.411 33.06C169.411 29.145 172.291 26.985 176.026 26.445L181.651 25.59C182.911 25.41 183.271 24.78 183.271 24.015C183.271 22.17 182.011 20.685 179.131 20.685C176.386 20.685 174.856 22.44 174.631 24.645L169.861 23.565C170.266 19.785 173.686 16.41 179.086 16.41C185.836 16.41 188.401 20.235 188.401 24.6V35.49C188.401 37.47 188.626 38.775 188.671 39H183.811C183.766 38.865 183.586 37.965 183.586 36.21C182.551 37.875 180.391 39.675 176.836 39.675C172.246 39.675 169.411 36.525 169.411 33.06ZM177.826 35.58C180.751 35.58 183.271 34.185 183.271 29.91V28.92L177.556 29.775C175.936 30.045 174.631 30.945 174.631 32.745C174.631 34.23 175.756 35.58 177.826 35.58Z" fill="white"/>
</g>
<defs>
<clipPath id="clip0_41_8275">
<rect width="188.671" height="46" fill="white"/>
</clipPath>
</defs>
</svg>
