<svg width="118" height="34" viewBox="0 0 118 34" fill="none" xmlns="http://www.w3.org/2000/svg">
<path d="M56.0275 20.278V32.2024H59.9016V19.5031C59.9016 17.896 59.5571 16.4754 58.8686 15.2413C58.1798 14.0073 57.2328 13.0459 56.0275 12.3571C54.8507 11.6683 53.4876 11.3239 51.9378 11.3239C50.388 11.3239 48.9959 11.6827 47.7621 12.4001C46.8327 12.919 46.0578 13.5844 45.4374 14.3963V1.46588H41.5633V32.2024H45.4374V20.278C45.4374 19.2448 45.6669 18.3264 46.1263 17.5229C46.5853 16.7193 47.2167 16.088 48.0205 15.6288C48.8239 15.1696 49.7423 14.94 50.7756 14.94C52.325 14.94 53.5878 15.4422 54.5637 16.4467C55.5396 17.4512 56.0275 18.7282 56.0275 20.278Z" fill="#A1ABB8"/>
<path d="M66.6971 31.5135C68.0459 32.2598 69.5668 32.6328 71.26 32.6328C72.9818 32.6328 74.4888 32.2598 75.7802 31.5135C77.1001 30.7386 78.1334 29.6767 78.8798 28.3279C79.6257 26.979 79.9987 25.415 79.9987 23.6357V11.7544H76.1246V23.4637C76.1246 25.1569 75.6942 26.4911 74.8329 27.467C73.972 28.4143 72.7813 28.8875 71.26 28.8875C70.2557 28.8875 69.3805 28.6723 68.6341 28.2419C67.8878 27.8114 67.3138 27.1943 66.9123 26.3908C66.5389 25.5585 66.3526 24.5826 66.3526 23.4637V11.7544H62.4782V23.6357C62.4782 25.415 62.8511 26.979 63.5975 28.3279C64.3435 29.6767 65.3768 30.7386 66.6971 31.5135Z" fill="#A1ABB8"/>
<path fill-rule="evenodd" clip-rule="evenodd" d="M92.51 32.6329C90.4723 32.6329 88.6355 32.1739 86.9997 31.2555C85.3639 30.3082 84.0722 29.0311 83.1253 27.4242C82.1783 25.817 81.7047 23.9945 81.7047 21.9568C81.7047 19.948 82.1641 18.14 83.0825 16.5328C84.0294 14.9257 85.2922 13.6629 86.8705 12.7446C88.4778 11.7975 90.2713 11.324 92.2516 11.324C94.1458 11.324 95.8101 11.7545 97.245 12.6154C98.7088 13.4764 99.8424 14.6674 100.646 16.1885C101.478 17.7095 101.894 19.4314 101.894 21.3543C101.894 21.6413 101.88 21.9568 101.851 22.3012C101.823 22.6171 101.765 22.9901 101.679 23.4205H85.6656C85.8021 24.217 86.0459 24.9487 86.3969 25.616C86.9708 26.6779 87.7889 27.5102 88.8508 28.1127C89.9126 28.6867 91.1322 28.9736 92.51 28.9736C93.6579 28.9736 94.7055 28.7731 95.6524 28.3711C96.6283 27.9692 97.4602 27.3668 98.1491 26.5629L100.646 29.1028C99.6704 30.2507 98.465 31.1263 97.0298 31.7288C95.6239 32.3316 94.1169 32.6329 92.51 32.6329ZM86.3541 18.1687C86.0324 18.7782 85.8054 19.4526 85.6737 20.1919H98.1181C98.0125 19.3456 97.7932 18.5994 97.4602 17.9534C96.9727 16.9777 96.2838 16.2315 95.394 15.7149C94.5045 15.1696 93.4284 14.897 92.1656 14.897C90.8453 14.897 89.6831 15.184 88.6783 15.758C87.6739 16.3319 86.8991 17.1355 86.3541 18.1687Z" fill="#A1ABB8"/>
<path d="M104.397 30.9111C105.258 31.4561 106.191 31.8869 107.195 32.2024C108.228 32.4894 109.319 32.6329 110.467 32.6329C112.762 32.6329 114.585 32.0732 115.934 30.9539C117.312 29.8349 118 28.3137 118 26.3909C118 25.1281 117.727 24.1094 117.182 23.3345C116.665 22.5596 115.991 21.9425 115.159 21.4835C114.326 21.0241 113.451 20.6654 112.533 20.4074C111.615 20.1202 110.725 19.8475 109.864 19.5893C109.032 19.331 108.357 19.0153 107.841 18.6422C107.324 18.2691 107.066 17.7382 107.066 17.0494C107.066 16.3606 107.353 15.8297 107.927 15.4566C108.53 15.0548 109.391 14.8539 110.51 14.8539C111.572 14.8539 112.519 15.0548 113.351 15.4566C114.212 15.8584 114.929 16.4324 115.503 17.1785L118 14.6817C117.197 13.5625 116.163 12.7302 114.901 12.185C113.667 11.611 112.246 11.324 110.639 11.324C109.118 11.324 107.812 11.5679 106.721 12.0558C105.66 12.5437 104.827 13.2468 104.225 14.1652C103.622 15.0548 103.321 16.1167 103.321 17.3508C103.321 18.5848 103.579 19.5749 104.095 20.3211C104.641 21.0673 105.329 21.6555 106.162 22.086C106.994 22.5164 107.869 22.8751 108.788 23.1621C109.735 23.4205 110.624 23.6932 111.457 23.9802C112.289 24.2386 112.963 24.5827 113.48 25.0135C114.025 25.4151 114.298 25.989 114.298 26.7353C114.298 27.4813 113.968 28.0699 113.308 28.5004C112.648 28.9019 111.715 29.1028 110.51 29.1028C109.305 29.1028 108.214 28.8876 107.238 28.4572C106.262 27.9982 105.401 27.3093 104.655 26.3909L102.158 28.8876C102.79 29.6625 103.536 30.3371 104.397 30.9111Z" fill="#A1ABB8"/>
<path d="M114.373 4.88873V5.65164H113.455V7.9727H112.583V5.65164H111.665V4.88873H114.373Z" fill="#A1ABB8"/>
<path d="M117.953 4.84259V7.98669H117.081V6.46086L116.443 7.17755H116.181L115.542 6.46086V7.98669H114.671V4.84259H114.979L116.312 6.18343L117.645 4.84259H117.953Z" fill="#A1ABB8"/>
<path d="M4.40868 9.90668C5.61521 13.7751 9.7293 15.9331 13.5977 14.7266C17.4662 13.5201 26.6288 7.22145 25.4222 3.35301C24.2156 -0.515477 13.0971 -0.4889 9.22865 0.717589C5.36016 1.92412 3.2022 6.0382 4.40868 9.90668Z" fill="#A1ABB8"/>
<path d="M2.07087 31.119C4.34146 33.3899 8.02244 33.3899 10.293 31.119C12.5636 28.8485 16.6745 21.0563 14.4043 18.7856C12.1337 16.5152 4.34146 20.6263 2.07087 22.8968C-0.199729 25.1672 -0.199729 28.8485 2.07087 31.119Z" fill="#A1ABB8"/>
<path d="M23.7974 33.3515C27.7118 34.4003 31.7351 32.0773 32.7839 28.1633C33.8323 24.2488 33.4088 13.1386 29.4948 12.0897C25.5804 11.0409 19.6584 20.451 18.6095 24.365C17.5605 28.279 19.8833 32.3027 23.7974 33.3515Z" fill="#A1ABB8"/>
</svg>
