<svg width="100" height="28" viewBox="0 0 100 28" fill="none" xmlns="http://www.w3.org/2000/svg">
<path d="M40.3705 25.2715C38.6044 25.2715 37.0988 24.9503 35.8545 24.3081C34.6301 23.6658 33.5765 22.8028 32.6935 21.719L35.0417 19.5212C35.7844 20.4244 36.5972 21.1068 37.4803 21.5684C38.3836 22.03 39.407 22.2609 40.5509 22.2609C41.8959 22.2609 42.9094 21.9598 43.5918 21.3577C44.2743 20.7555 44.6152 19.9427 44.6152 18.9191C44.6152 18.0962 44.3746 17.4439 43.8928 16.9622C43.411 16.4805 42.5581 16.1192 41.3336 15.8783L39.4672 15.5472C37.42 15.1658 35.8847 14.4935 34.8608 13.5301C33.8374 12.5667 33.3255 11.242 33.3255 9.55605C33.3255 8.63279 33.496 7.79987 33.8374 7.05726C34.1987 6.29455 34.6903 5.66234 35.3125 5.16059C35.9548 4.63872 36.7277 4.23733 37.631 3.95631C38.5338 3.67534 39.5478 3.53485 40.6715 3.53485C42.2572 3.53485 43.6319 3.81582 44.7961 4.37781C45.9603 4.91974 46.9535 5.7125 47.7767 6.75618L45.398 8.86361C44.8564 8.16113 44.1937 7.59919 43.411 7.17769C42.6283 6.75618 41.6548 6.54548 40.4911 6.54548C39.2868 6.54548 38.3534 6.78632 37.6908 7.26801C37.0286 7.74971 36.6975 8.45218 36.6975 9.37544C36.6975 10.2585 36.9683 10.9209 37.5104 11.3624C38.0525 11.7839 38.895 12.1051 40.0394 12.3258L41.9058 12.7172C44.0133 13.1186 45.5487 13.8011 46.5122 14.7644C47.4956 15.7278 47.9873 17.0525 47.9873 18.7384C47.9873 19.7219 47.8168 20.6151 47.4754 21.4179C47.1344 22.2207 46.6323 22.9132 45.9702 23.4952C45.3278 24.0572 44.5352 24.4987 43.5918 24.8199C42.6485 25.121 41.5747 25.2715 40.3705 25.2715Z" fill="#A1ABB8"/>
<path d="M56.3764 25.2715C55.2527 25.2715 54.2491 25.0808 53.3661 24.6995C52.483 24.3182 51.7403 23.7762 51.138 23.0738C50.5361 22.3512 50.0746 21.4882 49.7534 20.4847C49.4322 19.461 49.2716 18.327 49.2716 17.0827C49.2716 15.8383 49.4322 14.7143 49.7534 13.7108C50.0746 12.6872 50.5361 11.8241 51.138 11.1216C51.7403 10.3991 52.483 9.84715 53.3661 9.46582C54.2491 9.08444 55.2527 8.8938 56.3764 8.8938C57.9419 8.8938 59.2266 9.24504 60.2302 9.94751C61.2338 10.65 61.9662 11.5833 62.4277 12.7474L59.7183 14.0118C59.4974 13.2893 59.1061 12.7172 58.5442 12.2958C58.0022 11.8542 57.2797 11.6334 56.3764 11.6334C55.1722 11.6334 54.259 12.0148 53.6369 12.7775C53.035 13.5201 52.7336 14.4935 52.7336 15.6978V18.4976C52.7336 19.7019 53.035 20.6854 53.6369 21.448C54.259 22.1907 55.1722 22.562 56.3764 22.562C57.34 22.562 58.1025 22.3312 58.6648 21.8695C59.2469 21.3879 59.7084 20.7556 60.0494 19.9729L62.5483 21.2975C62.0265 22.5821 61.2437 23.5655 60.2001 24.2479C59.1565 24.9303 57.882 25.2715 56.3764 25.2715Z" fill="#A1ABB8"/>
<path d="M75.6374 24.9103C74.7746 24.9103 74.112 24.6694 73.6504 24.1877C73.1889 23.6859 72.9077 23.0537 72.8074 22.291H72.6572C72.3558 23.2745 71.8038 24.0171 71.0013 24.5189C70.1983 25.0207 69.2249 25.2715 68.0809 25.2715C66.4552 25.2715 65.2006 24.85 64.3175 24.0071C63.4547 23.1641 63.0229 22.0301 63.0229 20.6051C63.0229 19.0396 63.5852 17.8654 64.7089 17.0827C65.8528 16.2999 67.5191 15.9085 69.7067 15.9085H72.5366V14.5838C72.5366 13.6204 72.2757 12.8778 71.7539 12.356C71.2321 11.8342 70.4192 11.5732 69.3153 11.5732C68.3918 11.5732 67.6392 11.7739 67.0571 12.1754C66.475 12.5768 65.9833 13.0886 65.582 13.7108L63.6252 11.9345C64.147 11.0514 64.8794 10.3288 65.8227 9.76686C66.766 9.1848 68.0004 8.8938 69.5258 8.8938C71.5533 8.8938 73.1084 9.36546 74.1925 10.3088C75.2762 11.2521 75.8182 12.6069 75.8182 14.3731V22.2308H77.4741V24.9103H75.6374ZM69.0143 22.7727C70.0377 22.7727 70.8807 22.552 71.5429 22.1104C72.2055 21.6488 72.5366 21.0366 72.5366 20.2739V18.016H69.7669C67.4988 18.016 66.3648 18.7184 66.3648 20.1234V20.6653C66.3648 21.3678 66.5955 21.8996 67.0571 22.2609C67.5389 22.6021 68.1911 22.7727 69.0143 22.7727Z" fill="#A1ABB8"/>
<path d="M82.5267 24.9102C81.4026 24.9102 80.5596 24.6292 79.9977 24.0673C79.4557 23.4852 79.1848 22.6824 79.1848 21.6587V2.63165H82.4665V22.2308H84.6338V24.9102H82.5267Z" fill="#A1ABB8"/>
<path d="M92.4062 25.2715C91.2821 25.2715 90.2785 25.0808 89.3954 24.6995C88.5124 24.3182 87.7598 23.7762 87.1377 23.0738C86.5155 22.3512 86.0337 21.4882 85.6923 20.4847C85.3711 19.461 85.211 18.327 85.211 17.0827C85.211 15.8383 85.3711 14.7143 85.6923 13.7108C86.0337 12.6872 86.5155 11.8241 87.1377 11.1216C87.7598 10.3991 88.5124 9.84715 89.3954 9.46582C90.2785 9.08444 91.2821 8.8938 92.4062 8.8938C93.5502 8.8938 94.5538 9.09447 95.4166 9.49592C96.3001 9.89731 97.0324 10.4593 97.6145 11.1818C98.1966 11.8843 98.628 12.7072 98.9092 13.6505C99.2101 14.5939 99.3608 15.6074 99.3608 16.6913V17.9256H88.6127V18.4374C88.6127 19.6417 88.964 20.6352 89.6667 21.4179C90.3891 22.1806 91.4125 22.562 92.7373 22.562C93.7009 22.562 94.5137 22.3512 95.1759 21.9297C95.8381 21.5083 96.4004 20.9363 96.8619 20.2137L98.7886 22.1104C98.2065 23.0738 97.3635 23.8465 96.2596 24.4286C95.1557 24.9906 93.8714 25.2715 92.4062 25.2715ZM92.4062 11.4528C91.8444 11.4528 91.3221 11.5531 90.8408 11.7539C90.3788 11.9546 89.9775 12.2356 89.6365 12.5968C89.3153 12.9581 89.0643 13.3896 88.8835 13.8914C88.7031 14.3932 88.6127 14.9451 88.6127 15.5473V15.758H95.8984V15.4569C95.8984 14.2527 95.5875 13.2893 94.9649 12.5667C94.3428 11.8241 93.4899 11.4528 92.4062 11.4528Z" fill="#A1ABB8"/>
<path d="M13.0455 0.832275H0V27.3731H25.6413V13.4279H22.9423V24.674H2.69906V3.53134H13.0455V0.832275Z" fill="#A1ABB8"/>
<path d="M16.1944 3.53134H21.0337L8.99687 15.5682V10.7288H6.29781V20.1756H15.7445V17.4765H10.9056L22.9422 5.44007V10.279H25.6413V0.832275H16.1944V3.53134Z" fill="#A1ABB8"/>
</svg>
