<svg width="85" height="29" viewBox="0 0 85 29" fill="none" xmlns="http://www.w3.org/2000/svg">
<path d="M27.8304 25.0513C27.8304 25.4598 28.1632 25.7913 28.5733 25.7913H31.3279C31.738 25.7913 32.0708 25.4598 32.0708 25.0513V3.70281C32.0708 3.29409 31.738 2.96277 31.3279 2.96277H28.5733C28.1632 2.96277 27.8304 3.29409 27.8304 3.70281V25.0513Z" fill="#A1ABB8"/>
<path fill-rule="evenodd" clip-rule="evenodd" d="M38.3035 25.1234C39.582 25.8793 41.0682 26.2571 42.762 26.2571C44.4458 26.2571 45.9267 25.8845 47.2053 25.1389C48.4938 24.3833 49.4967 23.3428 50.214 22.0175C50.9413 20.6819 51.3053 19.1445 51.3053 17.4052C51.3053 15.6762 50.9465 14.1492 50.2296 12.824C49.5123 11.4884 48.5094 10.4428 47.2209 9.68701C45.9423 8.93121 44.4562 8.55334 42.762 8.55334C41.0994 8.55334 39.6288 8.92607 38.3503 9.67147C37.0721 10.4169 36.0688 11.4574 35.3415 12.7929C34.6138 14.1181 34.2502 15.6555 34.2502 17.4052C34.2502 19.1342 34.6034 20.6664 35.3103 22.0019C36.0276 23.3273 37.0253 24.3678 38.3035 25.1234ZM45.8019 20.9459C45.137 21.857 44.1237 22.3125 42.762 22.3125C41.4422 22.3125 40.4393 21.8725 39.7532 20.9925C39.0779 20.1022 38.7399 18.9064 38.7399 17.4052C38.7399 16.432 38.8803 15.5779 39.1608 14.8428C39.452 14.1078 39.8936 13.5332 40.4861 13.119C41.0786 12.7049 41.8371 12.4978 42.762 12.4978C44.1029 12.4978 45.111 12.943 45.7863 13.8334C46.4724 14.7238 46.8152 15.9144 46.8152 17.4052C46.8152 18.8443 46.4776 20.0245 45.8019 20.9459Z" fill="#A1ABB8"/>
<path fill-rule="evenodd" clip-rule="evenodd" d="M57.8513 26.2571C56.6456 26.2571 55.6219 26.0292 54.7802 25.5737C53.9489 25.1078 53.3148 24.4917 52.8784 23.7258C52.4519 22.9491 52.2391 22.0951 52.2391 21.1634C52.2391 20.3869 52.3587 19.6777 52.5976 19.0358C52.8368 18.3939 53.2212 17.8297 53.7513 17.3431C54.2917 16.8461 55.0138 16.432 55.9183 16.1007C56.5416 15.8729 57.2849 15.6711 58.1474 15.495C59.0103 15.3191 59.9872 15.1534 61.0785 14.9981C61.7207 14.9006 62.4009 14.7977 63.1185 14.6895C63.0379 13.998 62.8102 13.4694 62.4347 13.1035C61.9566 12.6376 61.1561 12.4047 60.034 12.4047C59.4103 12.4047 58.7606 12.5548 58.085 12.855C57.4097 13.1553 56.9368 13.6885 56.6664 14.4546L52.8316 13.2433C53.2576 11.856 54.0577 10.7275 55.2322 9.85782C56.4068 8.98816 58.0074 8.55334 60.034 8.55334C61.5202 8.55334 62.8399 8.78109 63.9936 9.23663C65.1474 9.69216 66.0203 10.479 66.6127 11.5971C66.9452 12.2183 67.1428 12.8395 67.2052 13.4607C67.2672 14.0819 67.2984 14.7755 67.2984 15.5416V25.7912H63.5884V23.7324C62.9183 24.5184 62.2066 25.1115 61.4525 25.5115C60.5068 26.0084 59.3063 26.2571 57.8513 26.2571ZM58.7555 22.9336C59.5351 22.9336 60.1896 22.7991 60.7197 22.53C61.2601 22.2504 61.6862 21.9347 61.9982 21.5827C62.3203 21.2307 62.5387 20.9356 62.6527 20.6975C62.8711 20.2419 62.9959 19.7139 63.0271 19.1134C63.0524 18.7413 63.0698 18.4076 63.0799 18.1122C62.3815 18.231 61.782 18.337 61.2809 18.4302C60.5016 18.5647 59.8728 18.689 59.3947 18.8028C58.9167 18.9167 58.4958 19.041 58.1318 19.1756C57.7161 19.3412 57.3785 19.5224 57.1185 19.7191C56.8692 19.9055 56.682 20.1125 56.5572 20.3403C56.4432 20.5681 56.386 20.8217 56.386 21.1012C56.386 21.4843 56.4796 21.8156 56.6664 22.0951C56.864 22.3643 57.1393 22.5714 57.4929 22.7163C57.8461 22.8614 58.267 22.9336 58.7555 22.9336Z" fill="#A1ABB8"/>
<path fill-rule="evenodd" clip-rule="evenodd" d="M72.5526 25.0924C73.7164 25.8691 75.0729 26.2572 76.6215 26.2572C78.2945 26.2572 79.6926 25.8691 80.8151 25.0924C80.9377 25.0073 81.0573 24.9192 81.1736 24.8275V25.7914H84.9152V3.42871H80.6435V9.56021C79.5957 8.88903 78.3275 8.55346 76.8395 8.55346C75.2285 8.55346 73.8256 8.93651 72.6306 9.70264C71.4353 10.4688 70.5052 11.5196 69.8399 12.8551C69.185 14.1803 68.8578 15.697 68.8578 17.4053C68.8578 19.0825 69.1798 20.5889 69.8243 21.9244C70.4792 23.2601 71.3885 24.3161 72.5526 25.0924ZM81.1736 17.4053C81.1736 18.4199 81.0488 19.3103 80.7995 20.0764C80.5499 20.8425 80.1395 21.4378 79.5678 21.8623C79.0066 22.2868 78.2532 22.499 77.3072 22.499C76.3926 22.499 75.6446 22.2712 75.0625 21.8157C74.4804 21.3602 74.0492 20.7493 73.7684 19.9832C73.4879 19.2067 73.3475 18.3474 73.3475 17.4053C73.3475 16.4735 73.4931 15.6246 73.784 14.8585C74.0752 14.082 74.522 13.466 75.1249 13.0104C75.7378 12.5445 76.5175 12.3116 77.4632 12.3116C78.3465 12.3116 79.0585 12.5239 79.599 12.9483C80.1499 13.3728 80.5499 13.9681 80.7995 14.7342C81.0488 15.5003 81.1736 16.3907 81.1736 17.4053Z" fill="#A1ABB8"/>
<path fill-rule="evenodd" clip-rule="evenodd" d="M0.316066 2.20717C0 2.82507 0 3.63401 0 5.25185V23.657C0 25.2751 0 26.084 0.316066 26.7019C0.594096 27.2455 1.03772 27.6873 1.58338 27.9641C2.2037 28.2789 3.01573 28.2789 4.63982 28.2789H14.8308C16.4549 28.2789 17.267 28.2789 17.8873 27.9641C18.4331 27.6873 18.8766 27.2455 19.1544 26.7019C19.4705 26.084 19.4705 25.2751 19.4705 23.657V3.27102C19.4705 2.34652 19.4705 1.88429 19.29 1.53118C19.131 1.22058 18.8777 0.968044 18.5657 0.809786C18.2114 0.629883 17.7474 0.629883 16.8193 0.629883H4.63982C3.01573 0.629883 2.2037 0.629883 1.58338 0.944733C1.03772 1.22169 0.594096 1.66361 0.316066 2.20717ZM8.83727 12.9577C9.27532 13.578 10.1959 13.578 10.634 12.9577L16.368 4.83815C16.8819 4.11035 16.3611 3.10608 15.4697 3.10608H4.00162C3.11018 3.10608 2.58929 4.11035 3.10327 4.83815L8.83727 12.9577ZM10.6339 15.9516C10.1959 15.3313 9.27526 15.3313 8.83721 15.9516L3.10318 24.0711C2.58924 24.7989 3.11012 25.8031 4.00153 25.8031H15.4696C16.361 25.8031 16.8819 24.7989 16.3679 24.0711L10.6339 15.9516Z" fill="#A1ABB8"/>
</svg>
