<svg width="115" height="33" viewBox="0 0 115 33" fill="none" xmlns="http://www.w3.org/2000/svg">
<path d="M37.4012 6.22329V2.28406H57.2204V6.22329H49.5702V29.5404H45.1306V6.22329H37.4012Z" fill="#A1ABB8"/>
<path d="M69.3603 25.9593L70.4704 25.8399L70.5494 29.063C67.5371 29.6731 64.8679 29.978 62.5424 29.978C59.6092 29.978 57.4953 29.1689 56.2005 27.5509C54.932 25.9327 54.2976 23.3463 54.2976 19.7918C54.2976 12.7356 57.165 9.20752 62.8993 9.20752C68.4487 9.20752 71.2235 12.2448 71.2235 18.3194L70.946 21.4231H58.6579C58.6844 23.0677 59.041 24.2748 59.7282 25.0439C60.4151 25.8134 61.6971 26.1979 63.5731 26.1979C65.4495 26.1979 67.3783 26.1183 69.3603 25.9593ZM66.982 18.0807C66.982 16.1179 66.6649 14.7517 66.0307 13.9823C65.4229 13.1865 64.3791 12.7886 62.8993 12.7886C61.4196 12.7886 60.3361 13.1998 59.6488 14.0221C58.9882 14.8445 58.6447 16.1973 58.6185 18.0807H66.982Z" fill="#A1ABB8"/>
<path d="M73.3962 29.5403V9.64523H77.6771V12.0326C79.9231 10.5737 82.1695 9.63195 84.4156 9.20752V13.5447C82.143 13.9956 80.2007 14.5793 78.5887 15.2953L77.7168 15.6537V29.5403H73.3962Z" fill="#A1ABB8"/>
<path d="M85.7366 29.5403V9.64523H90.0178V12.0326C92.2638 10.5737 94.5099 9.63195 96.7563 9.20752V13.5447C94.4836 13.9956 92.5413 14.5793 90.9294 15.2953L90.0572 15.6537V29.5403H85.7366Z" fill="#A1ABB8"/>
<path d="M112.743 15.773V24.8452C112.77 25.4288 112.915 25.8665 113.18 26.1583C113.47 26.4235 113.906 26.5959 114.488 26.6753L114.369 29.978C112.096 29.978 110.339 29.4872 109.097 28.5057C106.983 29.4872 104.855 29.978 102.715 29.978C98.7776 29.978 96.8088 27.8693 96.8088 23.6515C96.8088 21.6353 97.3373 20.1763 98.3945 19.2744C99.4777 18.3725 101.129 17.8286 103.349 17.6431L108.463 17.2054V15.773C108.463 14.7118 108.225 13.9691 107.749 13.5447C107.3 13.1202 106.626 12.908 105.727 12.908C104.036 12.908 101.922 13.0141 99.3852 13.2263L98.117 13.3059L97.9582 10.2421C100.839 9.55238 103.481 9.20752 105.886 9.20752C108.317 9.20752 110.061 9.73805 111.118 10.7991C112.202 11.8337 112.743 13.4916 112.743 15.773ZM103.864 20.7068C102.041 20.8661 101.129 21.8608 101.129 23.6912C101.129 25.5216 101.935 26.4366 103.547 26.4366C104.869 26.4366 106.269 26.2245 107.749 25.7999L108.463 25.5613V20.2691L103.864 20.7068Z" fill="#A1ABB8"/>
<path fill-rule="evenodd" clip-rule="evenodd" d="M25.4099 0C28.8591 0 31.737 2.44664 32.4025 5.69914C32.4976 6.1638 32.5475 6.64488 32.5475 7.13763V25.41C32.5475 29.3519 29.3519 32.5476 25.4099 32.5476H7.13763C6.3572 32.5476 5.60607 32.4223 4.90315 32.191C2.05558 31.2531 0 28.5717 0 25.41V7.13763C0 3.19563 3.19563 0 7.13763 0H25.4099ZM22.5149 2.28404H25.4099C27.7753 2.28404 29.7456 3.97623 30.1761 6.21608C28.8026 6.37171 27.2323 6.2275 25.5741 5.5169C24.1049 4.88714 23.1302 3.72042 22.5149 2.28404ZM15.7378 2.28404H20.0761C20.797 4.45374 22.1777 6.54624 24.6744 7.61625C26.6773 8.4746 28.5793 8.67371 30.2635 8.50646V10.8403C27.9769 11.5641 25.6983 11.8571 23.875 11.3235C22.9694 11.0584 21.9302 10.3546 20.8119 9.24757C19.7089 8.15566 18.6083 6.75129 17.5691 5.21618C16.9233 4.26222 16.3083 3.26849 15.7378 2.28404ZM13.1148 2.28404H10.0924C10.2301 4.86864 9.62116 8.02561 7.35579 11.2238C5.85494 13.3426 4.0801 14.5079 2.28404 15.0284V19.5819C3.36628 18.9247 4.64035 18.0271 6.13203 16.8151C9.65656 13.9514 12.4326 12.812 14.5376 12.6035C16.6303 12.3963 18.1181 13.1223 18.7733 14.0398C19.4614 15.003 19.8503 16.2938 19.9967 17.6551C20.1449 19.0329 20.0547 20.5698 19.7069 22.095C19.0163 25.127 17.2624 28.283 14.103 29.9843C13.9309 30.0771 13.7573 30.1702 13.5824 30.2636H17.1325C18.521 28.5008 19.6321 26.7496 20.0307 25.3771C20.4804 23.8277 20.6651 22.1852 20.8375 20.6497L20.8378 20.6495V20.6489C20.8998 20.0976 20.9603 19.5597 21.0308 19.0449C21.1533 18.153 21.3223 17.208 21.6852 16.5265C21.8774 16.1659 22.1826 15.7645 22.6736 15.5326C23.1907 15.2885 23.7289 15.3185 24.2008 15.4758C25.5238 15.9169 27.2825 16.0083 30.2635 15.2614V13.2242C27.9646 13.8719 25.4582 14.1667 23.2332 13.5155C21.7977 13.0954 20.435 12.0885 19.205 10.8707C17.9597 9.63786 16.7657 8.10332 15.6779 6.49667C14.7474 5.12236 13.8812 3.675 13.1148 2.28404ZM30.2635 17.6105C27.4236 18.2606 25.3814 18.2335 23.6541 17.699C23.5264 17.998 23.4074 18.5279 23.2937 19.3555C23.2372 19.7667 23.185 20.234 23.1282 20.7394C22.9517 22.3142 22.7339 24.258 22.224 26.0138C21.8334 27.3597 20.9883 28.8383 19.9839 30.2636H22.2816C22.7056 29.2095 23.0959 28.2056 23.4025 27.362C23.732 26.4552 23.9381 25.8031 24.0047 25.4714C24.1306 24.8412 24.3707 24.1632 24.934 23.6827C25.5198 23.1825 26.2393 23.0751 26.9134 23.1094C27.5772 23.1433 28.3555 23.3221 29.2334 23.5739C29.5526 23.6652 29.8958 23.7697 30.2635 23.8859V17.6105ZM30.1893 26.2605C29.5931 26.0669 29.0684 25.9028 28.6036 25.7694C27.7553 25.5259 27.1863 25.4103 26.7975 25.3906C26.5462 25.3777 26.4446 25.4088 26.4155 25.4217C26.3989 25.4411 26.3178 25.5516 26.2444 25.9193C26.1394 26.4441 25.8736 27.2492 25.5492 28.142C25.3165 28.7826 25.0399 29.505 24.7404 30.2636H25.4099C27.8004 30.2636 29.7873 28.5354 30.1893 26.2605ZM8.65415 30.2636C10.1499 29.4921 11.6596 28.7058 13.0201 27.9732C15.4281 26.6768 16.8862 24.1943 17.48 21.5876C17.7749 20.2934 17.8452 19.0107 17.7258 17.8995C17.6045 16.7714 17.2976 15.9032 16.9147 15.3673C16.8565 15.2857 16.2743 14.7269 14.7626 14.8765C13.263 15.025 10.8999 15.8841 7.57234 18.5878C5.48932 20.2803 3.74614 21.4397 2.28404 22.2063V24.7821C2.64446 24.4524 3.05145 24.1769 3.42758 23.9419C3.81075 23.7024 4.22828 23.4668 4.6386 23.2367L4.7403 23.1796C5.12359 22.9649 5.50403 22.7516 5.88181 22.5255C6.7082 22.0304 7.45129 21.5134 8.02267 20.9118C9.01195 19.8703 10.4398 18.6275 11.7823 17.779C12.4445 17.3601 13.1597 16.9898 13.8346 16.82C14.4679 16.6604 15.4498 16.5956 16.1341 17.3778C16.7854 18.1222 17.0552 19.2385 16.5809 20.6874C16.1304 22.0638 14.999 23.8014 12.8119 26.0615C10.5418 28.4072 8.27155 29.5823 6.35757 29.9569C6.1417 29.9992 5.92935 30.0312 5.72127 30.0537C6.16934 30.1902 6.64491 30.2636 7.13763 30.2636H8.65415ZM2.28404 12.6119C3.39063 12.1529 4.49308 11.3137 5.49195 9.90355C7.46428 7.1191 7.9409 4.41908 7.80517 2.28404H7.13763C4.45705 2.28404 2.28404 4.45708 2.28404 7.13763V12.6119ZM26.4132 25.4228C26.4078 25.4254 26.4055 25.4271 26.4058 25.4271C26.406 25.4274 26.4072 25.4268 26.4092 25.4254L26.4106 25.4245L26.4132 25.4228ZM13.0026 19.7096C11.8525 20.4365 10.5679 21.5488 9.67869 22.485C8.89409 23.3109 7.94204 23.9539 7.05541 24.4849C6.64796 24.7288 6.23938 24.9577 5.86068 25.1701L5.75579 25.229C5.34078 25.4616 4.96868 25.6721 4.63806 25.8788C3.92515 26.3242 3.62715 26.6239 3.53373 26.8155C3.50695 26.8706 3.50375 26.902 3.51203 26.95C3.52376 27.0185 3.57293 27.1764 3.76853 27.4371L3.78754 27.4625L3.80513 27.4887C3.80621 27.4902 3.83194 27.5258 3.91368 27.5758C3.9981 27.6275 4.12878 27.6857 4.31438 27.7314C4.6874 27.8233 5.23037 27.8499 5.91904 27.7151C7.28844 27.4473 9.15812 26.5526 11.1706 24.4729C13.2662 22.3077 14.1185 20.8676 14.4103 19.9771C14.5838 19.4466 14.5481 19.1594 14.4928 19.0127C14.4648 19.0178 14.4317 19.0249 14.3925 19.0349C14.0627 19.118 13.5867 19.3404 13.0026 19.7096ZM14.6155 19.0018C14.615 19.0027 14.6081 19.0027 14.5967 19.0004C14.6101 19.0001 14.6161 19.0012 14.6155 19.0018Z" fill="#A1ABB8"/>
</svg>
