<svg width="100" height="28" viewBox="0 0 100 28" fill="none" xmlns="http://www.w3.org/2000/svg">
<path fill-rule="evenodd" clip-rule="evenodd" d="M19.8232 5.5219H8.92035V0.896484H24.4485V16.4246H19.8232V5.5219Z" fill="#A1ABB8"/>
<path fill-rule="evenodd" clip-rule="evenodd" d="M11.3066 14.7257C10.6003 14.2538 9.76993 14.0019 8.92044 14.0019V9.37646C10.6848 9.37646 12.4094 9.89963 13.8764 10.8798C15.3433 11.86 16.4867 13.2532 17.1619 14.8832C17.8371 16.5133 18.0138 18.3068 17.6696 20.0371C17.3254 21.7677 16.4758 23.357 15.2281 24.6047C13.9806 25.8522 12.3911 26.7018 10.6607 27.046C8.93033 27.3902 7.13673 27.2135 5.50671 26.5383C3.87673 25.8631 2.48356 24.7198 1.50336 23.2528C0.523169 21.786 0 20.0612 0 18.2968H4.62542C4.62542 19.1463 4.87732 19.9768 5.34927 20.683C5.82119 21.3894 6.49199 21.94 7.2768 22.2651C8.06163 22.59 8.9252 22.6752 9.75837 22.5093C10.5915 22.3437 11.3568 21.9347 11.9575 21.3341C12.5581 20.7332 12.9672 19.9681 13.133 19.1349C13.2987 18.3018 13.2136 17.438 12.8885 16.6532C12.5635 15.8685 12.013 15.1977 11.3066 14.7257Z" fill="#A1ABB8"/>
<path d="M31.7172 23.5937V4.18762H38.8975C40.45 4.18762 41.7345 4.44635 42.751 4.96386C43.7675 5.48134 44.5252 6.19291 45.0242 7.09852C45.5232 8.00413 45.7727 9.02065 45.7727 10.1481C45.7727 11.22 45.5325 12.2088 45.052 13.1144C44.5713 14.0015 43.8228 14.7223 42.8063 15.2768C41.7898 15.8128 40.4868 16.0808 38.8975 16.0808H35.2657V23.5937H31.7172ZM35.2657 13.1976H38.6755C39.914 13.1976 40.8011 12.9296 41.3371 12.3936C41.8914 11.8391 42.1687 11.0906 42.1687 10.1481C42.1687 9.18699 41.8914 8.43846 41.3371 7.90248C40.8011 7.34804 39.914 7.07079 38.6755 7.07079H35.2657V13.1976Z" fill="#A1ABB8"/>
<path d="M53.0646 23.9263C51.6785 23.9263 50.4496 23.6306 49.3775 23.0392C48.3054 22.4479 47.4646 21.6161 46.8548 20.5443C46.2449 19.4722 45.9399 18.234 45.9399 16.8294C45.9399 15.4062 46.2357 14.1402 46.827 13.0313C47.4368 11.9223 48.2687 11.0629 49.3222 10.453C50.394 9.82464 51.6507 9.51044 53.0924 9.51044C54.4417 9.51044 55.6336 9.80615 56.6686 10.3976C57.7036 10.989 58.5077 11.8022 59.0805 12.8372C59.6721 13.8537 59.9676 14.9904 59.9676 16.2471C59.9676 16.4505 59.9583 16.663 59.9401 16.8847C59.9401 17.1064 59.9308 17.3377 59.9123 17.5779H49.4606C49.5347 18.6497 49.9043 19.4908 50.5697 20.1006C51.2533 20.7104 52.0759 21.0155 53.0371 21.0155C53.7578 21.0155 54.3584 20.8583 54.8388 20.5443C55.3381 20.2115 55.7077 19.7866 55.9479 19.269H59.552C59.2932 20.1376 58.8588 20.9324 58.2489 21.6531C57.6573 22.3553 56.9181 22.9099 56.031 23.3165C55.1624 23.7232 54.1737 23.9263 53.0646 23.9263ZM53.0924 12.3936C52.2238 12.3936 51.4568 12.6432 50.7914 13.1422C50.126 13.6227 49.7011 14.362 49.5161 15.36H56.3638C56.3083 14.4544 55.9757 13.7336 55.3656 13.1976C54.7558 12.6616 53.998 12.3936 53.0924 12.3936Z" fill="#A1ABB8"/>
<path d="M61.5662 23.5938V9.84311H64.6988L64.976 12.1718C65.4012 11.3586 66.011 10.7118 66.8058 10.2312C67.6189 9.75072 68.5708 9.51044 69.6611 9.51044C71.3615 9.51044 72.6831 10.0464 73.6255 11.1184C74.5682 12.1903 75.0394 13.7613 75.0394 15.8313V23.5938H71.4909V16.1639C71.4909 14.9811 71.2507 14.0755 70.7702 13.4471C70.2897 12.8187 69.541 12.5045 68.5245 12.5045C67.5265 12.5045 66.7042 12.8557 66.0573 13.558C65.429 14.2603 65.1147 15.2399 65.1147 16.4966V23.5938H61.5662Z" fill="#A1ABB8"/>
<path d="M83.1734 23.5937C81.7317 23.5937 80.5766 23.2427 79.708 22.5402C78.8394 21.8378 78.405 20.5903 78.405 18.7975V12.8095H76.0484V9.84308H78.405L78.8209 6.15594H81.9534V9.84308H85.6683V12.8095H81.9534V18.8253C81.9534 19.4907 82.0921 19.9527 82.3693 20.2114C82.6651 20.4517 83.1641 20.5718 83.8663 20.5718H85.5852V23.5937H83.1734Z" fill="#A1ABB8"/>
<path d="M92.0697 23.9263C90.8868 23.9263 89.9164 23.7417 89.1586 23.3721C88.4009 22.9839 87.8373 22.4757 87.4675 21.8471C87.0978 21.2187 86.9132 20.5258 86.9132 19.768C86.9132 18.4928 87.4122 17.4578 88.4101 16.663C89.4081 15.8683 90.9053 15.4709 92.9013 15.4709H96.3945V15.1382C96.3945 14.1956 96.1264 13.5025 95.5904 13.059C95.0544 12.6154 94.389 12.3936 93.5945 12.3936C92.8735 12.3936 92.2451 12.5692 91.7091 12.9204C91.1733 13.2531 90.8405 13.7521 90.7111 14.4174H87.2457C87.3381 13.4194 87.6709 12.5507 88.2437 11.8115C88.8353 11.0722 89.593 10.5085 90.5172 10.1204C91.4411 9.71376 92.4761 9.51044 93.622 9.51044C95.5812 9.51044 97.1244 10.0002 98.2518 10.9798C99.3791 11.9593 99.9429 13.3455 99.9429 15.1382V23.5938H96.9212L96.5884 21.3758C96.1817 22.1151 95.6089 22.7252 94.8697 23.2056C94.1488 23.6861 93.2156 23.9263 92.0697 23.9263ZM92.8735 21.1541C93.89 21.1541 94.6755 20.8213 95.2301 20.1562C95.8029 19.4908 96.1635 18.6682 96.3111 17.6887H93.2894C92.3467 17.6887 91.6723 17.8644 91.2657 18.2155C90.859 18.5481 90.6558 18.964 90.6558 19.463C90.6558 19.999 90.859 20.4149 91.2657 20.7104C91.6723 21.0062 92.2081 21.1541 92.8735 21.1541Z" fill="#A1ABB8"/>
</svg>
