<svg width="118" height="29" viewBox="0 0 118 29" fill="none" xmlns="http://www.w3.org/2000/svg">
<g clip-path="url(#clip0_103_4879)">
<path fill-rule="evenodd" clip-rule="evenodd" d="M2.87697 0H25.8927C26.6557 0 27.3875 0.303108 27.927 0.842645C28.4666 1.38218 28.7697 2.11395 28.7697 2.87697V25.8927C28.7697 26.6557 28.4666 27.3875 27.927 27.927C27.3875 28.4666 26.6557 28.7697 25.8927 28.7697H2.87697C2.11395 28.7697 1.38218 28.4666 0.842645 27.927C0.303108 27.3875 0 26.6557 0 25.8927V2.87697C0 2.11395 0.303108 1.38218 0.842645 0.842645C1.38218 0.303108 2.11395 0 2.87697 0ZM4.03077 2.77993C3.33995 2.77993 2.77992 3.33996 2.77992 4.03078C2.77992 4.72161 3.33995 5.28164 4.03077 5.28164H4.05526C4.74609 5.28164 5.30612 4.72161 5.30612 4.03078C5.30612 3.33996 4.74609 2.77993 4.05526 2.77993H4.03077ZM8.41395 2.77993C7.72312 2.77993 7.1631 3.33996 7.1631 4.03078C7.1631 4.72161 7.72312 5.28164 8.41395 5.28164H8.43844C9.12927 5.28164 9.6893 4.72161 9.6893 4.03078C9.6893 3.33996 9.12927 2.77993 8.43844 2.77993H8.41395ZM12.7971 2.77993C12.1063 2.77993 11.5463 3.33996 11.5463 4.03078C11.5463 4.72161 12.1063 5.28164 12.7971 5.28164H12.8216C13.5124 5.28164 14.0725 4.72161 14.0725 4.03078C14.0725 3.33996 13.5124 2.77993 12.8216 2.77993H12.7971Z" fill="#625FF3"/>
<path d="M51.6948 24.3918H48.2893V15.8641H38.9173V24.3918H35.54V4.4375H38.9173V12.6838H48.2893V4.4375H51.6948V24.3918Z" fill="#060A23"/>
<path d="M53.2737 20.6767C53.2737 18.2282 55.0749 16.8773 57.4109 16.5395L60.9289 16.0048C61.717 15.8922 61.9421 15.4982 61.9421 15.0197C61.9421 13.8658 61.1541 12.9371 59.3528 12.9371C57.636 12.9371 56.6791 14.0347 56.5384 15.4138L53.5551 14.7383C53.8084 12.3742 55.9474 10.2634 59.3247 10.2634C63.5463 10.2634 65.1506 12.6556 65.1506 15.3856V22.1965C65.1506 23.4349 65.2913 24.2511 65.3194 24.3918H62.2798C62.2517 24.3074 62.1391 23.7445 62.1391 22.6468C61.4918 23.6882 60.1409 24.8139 57.9175 24.8139C55.0468 24.8139 53.2737 22.8439 53.2737 20.6767ZM58.5366 22.2528C60.366 22.2528 61.9421 21.3804 61.9421 18.7066V18.0875L58.3678 18.6222C57.3546 18.7911 56.5384 19.354 56.5384 20.4797C56.5384 21.4085 57.242 22.2528 58.5366 22.2528Z" fill="#060A23"/>
<path d="M79.3418 10.6855L73.9663 24.3918H70.7015L65.129 10.6855H68.7314L72.362 20.4797L75.9082 10.6855H79.3418Z" fill="#060A23"/>
<path d="M78.8169 20.6767C78.8169 18.2282 80.6181 16.8773 82.9541 16.5395L86.4722 16.0048C87.2602 15.8922 87.4854 15.4982 87.4854 15.0197C87.4854 13.8658 86.6973 12.9371 84.8961 12.9371C83.1793 12.9371 82.2224 14.0347 82.0817 15.4138L79.0984 14.7383C79.3517 12.3742 81.4906 10.2634 84.8679 10.2634C89.0896 10.2634 90.6938 12.6556 90.6938 15.3856V22.1965C90.6938 23.4349 90.8345 24.2511 90.8627 24.3918H87.8231C87.7949 24.3074 87.6824 23.7445 87.6824 22.6468C87.035 23.6882 85.6841 24.8139 83.4607 24.8139C80.59 24.8139 78.8169 22.8439 78.8169 20.6767ZM84.0799 22.2528C85.9093 22.2528 87.4854 21.3804 87.4854 18.7066V18.0875L83.911 18.6222C82.8978 18.7911 82.0817 19.354 82.0817 20.4797C82.0817 21.4085 82.7853 22.2528 84.0799 22.2528Z" fill="#060A23"/>
<path d="M95.9037 16.4832V24.3918H92.639V10.6855H95.8193V12.5149C96.7199 10.9388 98.3523 10.2915 99.8721 10.2915C103.221 10.2915 104.825 12.7119 104.825 15.7234V24.3918H101.561V16.2862C101.561 14.5976 100.801 13.2467 98.7463 13.2467C96.8888 13.2467 95.9037 14.682 95.9037 16.4832Z" fill="#060A23"/>
<path d="M105.954 20.6767C105.954 18.2282 107.756 16.8773 110.091 16.5395L113.61 16.0048C114.398 15.8922 114.623 15.4982 114.623 15.0197C114.623 13.8658 113.835 12.9371 112.033 12.9371C110.317 12.9371 109.36 14.0347 109.219 15.4138L106.236 14.7383C106.489 12.3742 108.628 10.2634 112.005 10.2634C116.227 10.2634 117.831 12.6556 117.831 15.3856V22.1965C117.831 23.4349 117.972 24.2511 118 24.3918H114.96C114.932 24.3074 114.82 23.7445 114.82 22.6468C114.172 23.6882 112.821 24.8139 110.598 24.8139C107.727 24.8139 105.954 22.8439 105.954 20.6767ZM111.217 22.2528C113.047 22.2528 114.623 21.3804 114.623 18.7066V18.0875L111.048 18.6222C110.035 18.7911 109.219 19.354 109.219 20.4797C109.219 21.4085 109.923 22.2528 111.217 22.2528Z" fill="#060A23"/>
</g>
<defs>
<clipPath id="clip0_103_4879">
<rect width="118" height="28.7697" fill="white"/>
</clipPath>
</defs>
</svg>
