<svg width="421" height="87" viewBox="0 0 421 87" fill="none" xmlns="http://www.w3.org/2000/svg">
<path d="M111.711 83.3429C108.158 83.3429 105.262 82.7413 103.023 81.5382C100.785 80.3351 99.0363 78.8102 97.7773 76.9636C96.5461 75.1169 95.6648 73.2003 95.1332 71.2138C94.6016 69.1992 94.2798 67.3666 94.1679 65.7158C94.056 64.065 94 62.8619 94 62.1064V36.673H105.584V58.0774C105.584 59.1127 105.64 60.4417 105.751 62.0645C105.863 63.6593 106.213 65.2681 106.801 66.8909C107.388 68.5137 108.34 69.8707 109.655 70.9619C110.998 72.0532 112.886 72.5987 115.32 72.5987C116.3 72.5987 117.349 72.4449 118.468 72.1371C119.587 71.8293 120.637 71.2417 121.616 70.3744C122.595 69.479 123.393 68.178 124.008 66.4712C124.652 64.7365 124.973 62.4702 124.973 59.6722L131.521 62.7779C131.521 66.3593 130.793 69.7168 129.338 72.8506C127.883 75.9843 125.687 78.5164 122.749 80.447C119.839 82.3776 116.16 83.3429 111.711 83.3429ZM126.4 81.9999V66.9749H124.973V36.673H136.473V81.9999H126.4Z" fill="black"/>
<path d="M198.566 81.9999V55.2235C198.566 52.2297 197.853 49.9074 196.426 48.2566C195.027 46.5778 193.082 45.7384 190.592 45.7384C188.997 45.7384 187.612 46.1161 186.437 46.8716C185.262 47.599 184.339 48.6343 183.667 49.9773C183.024 51.2924 182.702 52.8172 182.702 54.552L177.917 51.3623C177.917 48.2566 178.645 45.5146 180.1 43.1363C181.583 40.758 183.555 38.9114 186.017 37.5963C188.508 36.2533 191.264 35.5818 194.285 35.5818C199.462 35.5818 203.365 37.1207 205.995 40.1984C208.653 43.2482 209.982 47.2493 209.982 52.2017V81.9999H198.566ZM143.922 81.9999V36.673H153.995V51.6981H155.422V81.9999H143.922ZM171.286 81.9999V55.2235C171.286 52.2297 170.573 49.9074 169.146 48.2566C167.747 46.5778 165.802 45.7384 163.312 45.7384C160.934 45.7384 159.017 46.5638 157.562 48.2146C156.135 49.8374 155.422 51.9499 155.422 54.552L150.637 51.1944C150.637 48.2286 151.379 45.5705 152.862 43.2202C154.344 40.8699 156.331 39.0093 158.821 37.6383C161.339 36.2673 164.151 35.5818 167.257 35.5818C170.81 35.5818 173.72 36.3372 175.987 37.8481C178.281 39.359 179.974 41.3736 181.065 43.8917C182.156 46.4099 182.702 49.1799 182.702 52.2017V81.9999H171.286Z" fill="black"/>
<path d="M238.942 83.259C234.437 83.259 230.674 82.2097 227.652 80.1113C224.631 78.0128 222.35 75.1589 220.811 71.5495C219.3 67.9401 218.545 63.8692 218.545 59.3365C218.545 54.8038 219.3 50.7328 220.811 47.1234C222.322 43.514 224.547 40.6601 227.485 38.5616C230.422 36.4632 234.046 35.4139 238.355 35.4139C242.691 35.4139 246.469 36.4492 249.686 38.5196C252.904 40.5901 255.394 43.4301 257.157 47.0395C258.948 50.6208 259.843 54.7198 259.843 59.3365C259.843 63.8692 258.962 67.9401 257.199 71.5495C255.464 75.1589 253.03 78.0128 249.896 80.1113C246.762 82.2097 243.111 83.259 238.942 83.259ZM216.614 81.9999V5.25908H228.114V50.9426H226.687V81.9999H216.614ZM237.096 73.1024C239.558 73.1024 241.572 72.4868 243.139 71.2557C244.706 70.0246 245.867 68.3738 246.623 66.3033C247.378 64.2049 247.756 61.8826 247.756 59.3365C247.756 56.8183 247.364 54.524 246.581 52.4535C245.797 50.355 244.58 48.6902 242.929 47.4591C241.306 46.2001 239.222 45.5705 236.676 45.5705C234.298 45.5705 232.367 46.1441 230.884 47.2913C229.429 48.4384 228.366 50.0473 227.694 52.1178C227.023 54.1882 226.687 56.5945 226.687 59.3365C226.687 62.0785 227.023 64.4847 227.694 66.5552C228.366 68.6257 229.457 70.2345 230.968 71.3816C232.507 72.5288 234.549 73.1024 237.096 73.1024Z" fill="black"/>
<path d="M264.881 81.9999V36.673H274.954V47.7529L273.863 46.326C274.45 44.7591 275.234 43.3321 276.213 42.0451C277.192 40.758 278.395 39.6948 279.822 38.8554C280.914 38.1839 282.103 37.6663 283.39 37.3025C284.677 36.9108 286.006 36.673 287.377 36.5891C288.748 36.4771 290.119 36.5051 291.49 36.673V47.3332C290.231 46.9415 288.762 46.8156 287.083 46.9555C285.432 47.0674 283.935 47.4452 282.592 48.0887C281.249 48.7042 280.116 49.5296 279.193 50.5649C278.27 51.5722 277.57 52.7753 277.094 54.1743C276.619 55.5453 276.381 57.0981 276.381 58.8329V81.9999H264.881Z" fill="black"/>
<path d="M315.525 83.259C310.881 83.259 306.782 82.2657 303.228 80.2791C299.703 78.2646 296.933 75.5086 294.918 72.0112C292.932 68.4857 291.938 64.4568 291.938 59.9241C291.938 54.9717 292.918 50.6628 294.876 46.9975C296.835 43.3321 299.535 40.4922 302.976 38.4777C306.418 36.4352 310.377 35.4139 314.854 35.4139C319.61 35.4139 323.653 36.5331 326.983 38.7715C330.313 41.0098 332.775 44.1575 334.37 48.2146C335.964 52.2716 336.524 57.0421 336.048 62.5261H324.759V58.3292C324.759 53.7126 324.017 50.397 322.534 48.3825C321.079 46.34 318.687 45.3187 315.357 45.3187C311.468 45.3187 308.6 46.5078 306.754 48.8861C304.935 51.2364 304.026 54.7198 304.026 59.3365C304.026 63.5614 304.935 66.8349 306.754 69.1573C308.6 71.4516 311.3 72.5987 314.854 72.5987C317.092 72.5987 319.009 72.1091 320.604 71.1298C322.198 70.1505 323.416 68.7376 324.255 66.8909L335.671 70.1645C333.964 74.3055 331.264 77.5231 327.571 79.8175C323.905 82.1118 319.89 83.259 315.525 83.259ZM300.5 62.5261V54.0484H330.55V62.5261H300.5Z" fill="black"/>
<path d="M342.167 81.9999V4H353.583V81.9999H342.167Z" fill="black"/>
<path d="M362.808 81.9999V4H374.223V81.9999H362.808Z" fill="black"/>
<path d="M395.2 83.259C391.954 83.259 389.198 82.6434 386.932 81.4123C384.693 80.1532 382.987 78.4884 381.811 76.418C380.664 74.3195 380.091 72.0112 380.091 69.493C380.091 67.3945 380.412 65.478 381.056 63.7432C381.699 62.0085 382.735 60.4837 384.162 59.1686C385.617 57.8256 387.561 56.7064 389.995 55.8111C391.674 55.1955 393.675 54.6499 395.997 54.1743C398.319 53.6986 400.949 53.2509 403.887 52.8312C406.825 52.3836 410.057 51.8939 413.582 51.3623L409.469 53.6287C409.469 50.9426 408.826 48.97 407.539 47.711C406.252 46.4519 404.097 45.8223 401.075 45.8223C399.397 45.8223 397.648 46.228 395.829 47.0395C394.011 47.8509 392.737 49.2918 392.01 51.3623L381.686 48.0887C382.833 44.3394 384.987 41.2896 388.149 38.9394C391.311 36.5891 395.619 35.4139 401.075 35.4139C405.077 35.4139 408.63 36.0295 411.736 37.2606C414.841 38.4917 417.192 40.6181 418.787 43.6399C419.682 45.3187 420.213 46.9975 420.381 48.6763C420.549 50.355 420.633 52.2297 420.633 54.3002V81.9999H410.644V72.6827L412.071 74.6133C409.861 77.663 407.469 79.8734 404.895 81.2444C402.348 82.5875 399.117 83.259 395.2 83.259ZM397.634 74.2775C399.732 74.2775 401.495 73.9138 402.922 73.1863C404.377 72.4309 405.524 71.5775 406.364 70.6262C407.231 69.6749 407.819 68.8775 408.126 68.2339C408.714 67.0028 409.05 65.5759 409.134 63.9531C409.245 62.3023 409.301 60.9313 409.301 59.8401L412.659 60.6795C409.273 61.2391 406.531 61.7147 404.433 62.1064C402.334 62.4702 400.642 62.8059 399.355 63.1137C398.068 63.4215 396.934 63.7572 395.955 64.1209C394.836 64.5686 393.927 65.0583 393.227 65.5899C392.556 66.0935 392.052 66.6531 391.716 67.2686C391.408 67.8842 391.255 68.5697 391.255 69.3251C391.255 70.3604 391.506 71.2557 392.01 72.0112C392.542 72.7386 393.283 73.2982 394.234 73.6899C395.186 74.0817 396.319 74.2775 397.634 74.2775Z" fill="black"/>
<path d="M5 42H68V50.5C68 67.897 53.897 82 36.5 82V82C19.103 82 5 67.897 5 50.5V42Z" stroke="#EE1B23" stroke-width="10" stroke-linecap="square"/>
<path d="M36 61L36 15.5C36 9.70102 31.299 5 25.5 5V5C19.701 5 15 9.70101 15 15.5V15.5" stroke="#EE1B23" stroke-width="10" stroke-linecap="square" stroke-linejoin="round"/>
</svg>
