<svg width="22" height="22" viewBox="0 0 22 22" fill="none" xmlns="http://www.w3.org/2000/svg">
<g clip-path="url(#clip0_1992_8923)">
<path d="M8.24967 20.1668C8.75594 20.1668 9.16634 19.7564 9.16634 19.2502C9.16634 18.7439 8.75594 18.3335 8.24967 18.3335C7.74341 18.3335 7.33301 18.7439 7.33301 19.2502C7.33301 19.7564 7.74341 20.1668 8.24967 20.1668Z" stroke="white" stroke-width="2" stroke-linecap="round" stroke-linejoin="round"/>
<path d="M18.3337 20.1668C18.8399 20.1668 19.2503 19.7564 19.2503 19.2502C19.2503 18.7439 18.8399 18.3335 18.3337 18.3335C17.8274 18.3335 17.417 18.7439 17.417 19.2502C17.417 19.7564 17.8274 20.1668 18.3337 20.1668Z" stroke="white" stroke-width="2" stroke-linecap="round" stroke-linejoin="round"/>
<path d="M0.916992 0.916504H4.58366L7.04033 13.1907C7.12415 13.6127 7.35374 13.9918 7.68891 14.2616C8.02408 14.5314 8.44346 14.6747 8.87366 14.6665H17.7837C18.2139 14.6747 18.6332 14.5314 18.9684 14.2616C19.3036 13.9918 19.5332 13.6127 19.617 13.1907L21.0837 5.49984H5.50033" stroke="white" stroke-width="2" stroke-linecap="round" stroke-linejoin="round"/>
</g>
<defs>
<clipPath id="clip0_1992_8923">
<rect width="22" height="22" fill="white"/>
</clipPath>
</defs>
</svg>
