<svg width="140" height="26" viewBox="0 0 140 26" fill="none" xmlns="http://www.w3.org/2000/svg">
<path d="M31.0709 22.4809V3.91937H38.5028C39.8683 3.91937 41.0072 4.12178 41.9196 4.52661C42.832 4.93143 43.5178 5.49335 43.977 6.21237C44.4362 6.92534 44.6658 7.74708 44.6658 8.67757C44.6658 9.40263 44.5208 10.0401 44.2307 10.5899C43.9407 11.1337 43.5419 11.5808 43.0344 11.9313C42.5329 12.2757 41.9589 12.5204 41.3124 12.6654V12.8467C42.0193 12.8769 42.6809 13.0763 43.2972 13.4448C43.9196 13.8134 44.4241 14.33 44.8108 14.9946C45.1975 15.6532 45.3908 16.4387 45.3908 17.3511C45.3908 18.336 45.1461 19.2151 44.6567 19.9885C44.1733 20.7558 43.4573 21.3631 42.5087 21.8102C41.5601 22.2573 40.3909 22.4809 39.0012 22.4809H31.0709ZM34.9953 19.2725H38.1946C39.2883 19.2725 40.0858 19.064 40.5873 18.6471C41.0888 18.2242 41.3396 17.6623 41.3396 16.9614C41.3396 16.4478 41.2157 15.9946 40.968 15.6019C40.7202 15.2091 40.3668 14.901 39.9076 14.6774C39.4544 14.4539 38.9136 14.3421 38.2853 14.3421H34.9953V19.2725ZM34.9953 11.6866H37.9046C38.4423 11.6866 38.9197 11.5929 39.3366 11.4056C39.7595 11.2123 40.0919 10.9404 40.3335 10.5899C40.5813 10.2395 40.7051 9.81954 40.7051 9.33012C40.7051 8.65944 40.4665 8.11867 39.9891 7.7078C39.5179 7.29694 38.8472 7.0915 37.9771 7.0915H34.9953V11.6866Z" fill="white"/>
<path d="M55.0126 16.5535V8.55975H58.8736V22.4809H55.1667V19.9522H55.0217C54.7075 20.7679 54.1848 21.4235 53.4537 21.9189C52.7287 22.4144 51.8435 22.6621 50.7982 22.6621C49.8677 22.6621 49.049 22.4507 48.3421 22.0277C47.6352 21.6048 47.0823 21.0036 46.6835 20.2241C46.2908 19.4447 46.0914 18.5112 46.0853 17.4236V8.55975H49.9463V16.7348C49.9523 17.5565 50.1729 18.206 50.6079 18.6834C51.0429 19.1607 51.626 19.3994 52.3571 19.3994C52.8223 19.3994 53.2574 19.2936 53.6622 19.0822C54.067 18.8646 54.3933 18.5444 54.641 18.1215C54.8948 17.6985 55.0187 17.1759 55.0126 16.5535Z" fill="white"/>
<path d="M66.5196 22.7528C65.0876 22.7528 63.855 22.4627 62.8218 21.8827C61.7946 21.2966 61.0031 20.4688 60.4472 19.3994C59.8913 18.3239 59.6134 17.052 59.6134 15.5837C59.6134 14.1518 59.8913 12.895 60.4472 11.8134C61.0031 10.7319 61.7855 9.88902 62.7946 9.2848C63.8097 8.68059 65 8.37848 66.3655 8.37848C67.2839 8.37848 68.1389 8.52652 68.9304 8.82258C69.728 9.1126 70.4228 9.55066 71.0149 10.1367C71.6131 10.7228 72.0784 11.46 72.4107 12.3482C72.743 13.2303 72.9091 14.2635 72.9091 15.4478V16.5082H61.1541V14.1155H69.2748C69.2748 13.5596 69.1539 13.0672 68.9123 12.6382C68.6706 12.2092 68.3352 11.8739 67.9062 11.6322C67.4833 11.3845 66.9909 11.2606 66.4289 11.2606C65.8428 11.2606 65.3232 11.3965 64.8701 11.6684C64.4229 11.9343 64.0725 12.2938 63.8187 12.747C63.565 13.1941 63.4351 13.6926 63.429 14.2424V16.5173C63.429 17.2061 63.5559 17.8012 63.8097 18.3027C64.0695 18.8042 64.435 19.1909 64.9063 19.4628C65.3776 19.7347 65.9365 19.8707 66.583 19.8707C67.012 19.8707 67.4047 19.8102 67.7612 19.6894C68.1177 19.5685 68.4228 19.3873 68.6766 19.1456C68.9304 18.9039 69.1237 18.6078 69.2567 18.2574L72.8276 18.493C72.6463 19.351 72.2747 20.1003 71.7128 20.7407C71.1569 21.3752 70.4379 21.8706 69.5558 22.2271C68.6796 22.5775 67.6676 22.7528 66.5196 22.7528Z" fill="white"/>
<path d="M77.5031 14.4327V22.4809H73.6422V8.55975H77.3219V11.0159H77.485C77.7931 10.2062 78.3097 9.56576 79.0348 9.09448C79.7599 8.61715 80.639 8.37848 81.6722 8.37848C82.6389 8.37848 83.4818 8.58996 84.2008 9.01291C84.9199 9.43586 85.4788 10.0401 85.8775 10.8256C86.2763 11.605 86.4757 12.5355 86.4757 13.617V22.4809H82.6148V14.3058C82.6208 13.4539 82.4033 12.7893 81.9622 12.3119C81.5211 11.8286 80.9139 11.5869 80.1405 11.5869C79.6209 11.5869 79.1617 11.6986 78.7629 11.9222C78.3702 12.1458 78.062 12.472 77.8385 12.901C77.6209 13.324 77.5092 13.8345 77.5031 14.4327Z" fill="white"/>
<path d="M94.022 22.7528C92.6142 22.7528 91.3967 22.4537 90.3695 21.8555C89.3484 21.2513 88.5599 20.4114 88.004 19.3359C87.4482 18.2544 87.1702 17.0006 87.1702 15.5747C87.1702 14.1367 87.4482 12.8799 88.004 11.8044C88.5599 10.7228 89.3484 9.88298 90.3695 9.2848C91.3967 8.68059 92.6142 8.37848 94.022 8.37848C95.4298 8.37848 96.6443 8.68059 97.6654 9.2848C98.6926 9.88298 99.4841 10.7228 100.04 11.8044C100.596 12.8799 100.874 14.1367 100.874 15.5747C100.874 17.0006 100.596 18.2544 100.04 19.3359C99.4841 20.4114 98.6926 21.2513 97.6654 21.8555C96.6443 22.4537 95.4298 22.7528 94.022 22.7528ZM94.0401 19.7619C94.6806 19.7619 95.2154 19.5806 95.6443 19.2181C96.0733 18.8495 96.3966 18.348 96.6141 17.7136C96.8377 17.0792 96.9494 16.3571 96.9494 15.5475C96.9494 14.7378 96.8377 14.0158 96.6141 13.3814C96.3966 12.747 96.0733 12.2455 95.6443 11.8769C95.2154 11.5083 94.6806 11.324 94.0401 11.324C93.3936 11.324 92.8498 11.5083 92.4088 11.8769C91.9737 12.2455 91.6444 12.747 91.4209 13.3814C91.2034 14.0158 91.0946 14.7378 91.0946 15.5475C91.0946 16.3571 91.2034 17.0792 91.4209 17.7136C91.6444 18.348 91.9737 18.8495 92.4088 19.2181C92.8498 19.5806 93.3936 19.7619 94.0401 19.7619Z" fill="white"/>
<path d="M113.181 12.5294L109.646 12.747C109.586 12.4448 109.456 12.173 109.256 11.9313C109.057 11.6835 108.794 11.4872 108.468 11.3422C108.147 11.1911 107.764 11.1156 107.317 11.1156C106.719 11.1156 106.214 11.2425 105.803 11.4962C105.392 11.744 105.187 12.0763 105.187 12.4932C105.187 12.8255 105.32 13.1065 105.586 13.3361C105.851 13.5657 106.308 13.75 106.954 13.8889L109.474 14.3965C110.827 14.6744 111.836 15.1215 112.501 15.7378C113.165 16.3541 113.498 17.1638 113.498 18.1668C113.498 19.0791 113.229 19.8797 112.691 20.5685C112.159 21.2573 111.428 21.7951 110.498 22.1818C109.573 22.5624 108.507 22.7528 107.299 22.7528C105.456 22.7528 103.987 22.3691 102.894 21.6017C101.806 20.8283 101.169 19.777 100.981 18.4477L104.779 18.2483C104.894 18.8103 105.172 19.2393 105.613 19.5353C106.054 19.8253 106.619 19.9704 107.308 19.9704C107.984 19.9704 108.528 19.8404 108.939 19.5806C109.356 19.3148 109.567 18.9734 109.573 18.5565C109.567 18.206 109.419 17.919 109.129 17.6955C108.839 17.4659 108.392 17.2907 107.788 17.1698L105.377 16.6895C104.018 16.4176 103.006 15.9463 102.341 15.2756C101.682 14.6049 101.353 13.75 101.353 12.7107C101.353 11.8165 101.595 11.0461 102.078 10.3996C102.568 9.75307 103.253 9.25459 104.136 8.90415C105.024 8.5537 106.063 8.37848 107.253 8.37848C109.012 8.37848 110.395 8.75007 111.404 9.49326C112.419 10.2364 113.011 11.2485 113.181 12.5294Z" fill="white"/>
<path d="M121.535 22.4809H117.329L123.737 3.91937H128.794L135.193 22.4809H130.988L126.338 8.16096H126.193L121.535 22.4809ZM121.272 15.185H131.205V18.2483H121.272V15.185Z" fill="white"/>
<path d="M137.825 22.7165C137.227 22.7165 136.713 22.505 136.284 22.0821C135.861 21.6531 135.65 21.1395 135.65 20.5413C135.65 19.9492 135.861 19.4417 136.284 19.0187C136.713 18.5958 137.227 18.3843 137.825 18.3843C138.405 18.3843 138.912 18.5958 139.347 19.0187C139.782 19.4417 140 19.9492 140 20.5413C140 20.9401 139.897 21.3057 139.692 21.638C139.492 21.9643 139.23 22.2271 138.903 22.4265C138.577 22.6198 138.218 22.7165 137.825 22.7165Z" fill="white"/>
<path fill-rule="evenodd" clip-rule="evenodd" d="M0 0V25.9866H13.6396C15.5852 25.9866 17.2221 25.6736 18.5502 25.0476C19.8783 24.4216 20.8807 23.5715 21.5574 22.4971C22.2426 21.4144 22.5852 20.1836 22.5852 18.8047C22.5852 17.5274 22.3145 16.4277 21.7731 15.5056C21.2317 14.5751 20.5254 13.8519 19.6541 13.3359C18.7913 12.8199 17.865 12.5407 16.8753 12.4984V12.2446C17.7804 12.0416 18.584 11.699 19.2861 11.2169C19.9967 10.7262 20.555 10.1002 20.961 9.33892C21.3671 8.56913 21.5701 7.67669 21.5701 6.66159C21.5701 5.35888 21.2487 4.20843 20.6058 3.21025C19.9629 2.20361 19.0027 1.41691 17.7254 0.850146C16.4481 0.283382 14.8535 0 12.9418 0H0ZM17.8297 19.2211C17.8297 18.4251 17.3724 17.6999 16.6542 17.3569L7.24932 12.8644V12.7071L16.6525 8.22414C17.3717 7.8813 17.8297 7.15558 17.8297 6.3589C17.8297 4.84369 16.2529 3.84375 14.8823 4.48973L3.10081 10.0424L3.10081 15.529L14.8819 21.0894C16.2523 21.7362 17.8297 20.7365 17.8297 19.2211Z" fill="white"/>
</svg>
