<svg width="123" height="34" viewBox="0 0 123 34" fill="none" xmlns="http://www.w3.org/2000/svg">
<path d="M45.9443 6.04437H50.3022L45.5533 26.4828H37.8889L33.14 6.04437H37.4982L41.0451 22.876H42.3974L45.9443 6.04437Z" fill="#A1ABB8"/>
<path d="M54.4575 20.6819C54.4775 21.6036 54.7179 22.2749 55.1787 22.6957C55.6595 23.0964 56.3408 23.2968 57.2227 23.2968C59.086 23.2968 60.7493 23.2367 62.212 23.1164L63.0536 23.0263L63.1137 26.002C60.8094 26.563 58.7253 26.8436 56.8619 26.8436C54.5978 26.8436 52.9546 26.2424 51.9327 25.0401C50.9106 23.8378 50.3999 21.8841 50.3999 19.1791C50.3999 13.7889 52.6141 11.0939 57.0421 11.0939C61.4103 11.0939 63.5945 13.3581 63.5945 17.8866L63.294 20.6819H54.4575ZM59.627 17.6161C59.627 16.4139 59.4368 15.5823 59.0561 15.1214C58.6754 14.6405 58.0041 14.4001 57.0421 14.4001C56.1004 14.4001 55.4291 14.6506 55.0284 15.1515C54.6477 15.6324 54.4475 16.4539 54.4273 17.6161H59.627Z" fill="#A1ABB8"/>
<path d="M65.872 26.4828V11.4545H69.8694V13.0475C71.5526 12.0457 73.1556 11.3944 74.6785 11.0939V15.1515C73.0552 15.4921 71.6627 15.8428 70.5005 16.2035L69.8994 16.4139V26.4828H65.872Z" fill="#A1ABB8"/>
<path d="M84.7793 14.881H81.0824V21.0425C81.0824 21.6437 81.0924 22.0745 81.1127 22.335C81.1526 22.5754 81.263 22.7858 81.4432 22.9662C81.6437 23.1465 81.944 23.2367 82.345 23.2367L84.6293 23.1765L84.8095 26.3927C83.4669 26.6933 82.4451 26.8436 81.7438 26.8436C79.9403 26.8436 78.708 26.4426 78.0469 25.6412C77.3856 24.8196 77.0551 23.3168 77.0551 21.1327V14.881H75.2815V11.4545H77.0551V7.27667H81.0824V11.4545H84.7793V14.881Z" fill="#A1ABB8"/>
<path d="M86.8008 26.4828V11.4545H90.8285V26.4828H86.8008ZM86.8008 9.53092V5.44324H90.8285V9.53092H86.8008Z" fill="#A1ABB8"/>
<path d="M107.564 28.3462C107.564 30.0696 106.903 31.3418 105.581 32.1634C104.258 32.9851 102.465 33.3957 100.201 33.3957C97.9564 33.3957 96.223 33.0951 95.0007 32.494C93.7984 31.8928 93.1972 30.8008 93.1972 29.2181C93.1972 27.9555 93.9187 26.7632 95.3615 25.6413C94.62 25.1402 94.2493 24.3787 94.2493 23.3569C94.2493 22.9561 94.5498 22.2949 95.151 21.3732L95.4214 20.9524C94.059 19.9705 93.3777 18.5278 93.3777 16.6242C93.3777 14.7006 93.9487 13.308 95.0908 12.4464C96.253 11.5848 97.7858 11.154 99.6895 11.154C100.551 11.154 101.403 11.2542 102.244 11.4545L102.725 11.5447L107.564 11.3944V14.6105L105.31 14.4301C105.751 15.1114 105.971 15.7927 105.971 16.474C105.971 18.4777 105.46 19.8603 104.438 20.6218C103.417 21.3832 101.814 21.7639 99.6293 21.7639C99.1684 21.7639 98.7578 21.7238 98.397 21.6437C98.1968 22.1647 98.0964 22.5955 98.0964 22.9361C98.0964 23.2567 98.267 23.4771 98.6075 23.5974C98.948 23.7176 99.7496 23.7877 101.012 23.8078C103.537 23.8278 105.26 24.1684 106.182 24.8296C107.103 25.471 107.564 26.6431 107.564 28.3462ZM97.1647 28.7971C97.1647 29.6587 98.2168 30.0896 100.321 30.0896C102.445 30.0896 103.507 29.5885 103.507 28.5866C103.507 28.0456 103.326 27.6952 102.966 27.5349C102.605 27.3946 101.843 27.3144 100.681 27.2942L97.9764 27.084C97.4354 27.625 97.1647 28.1959 97.1647 28.7971ZM97.4051 16.504C97.4051 17.9668 98.1666 18.6981 99.6895 18.6981C101.232 18.6981 102.004 17.9668 102.004 16.504C102.004 15.0213 101.232 14.2799 99.6895 14.2799C98.1666 14.2799 97.4051 15.0213 97.4051 16.504Z" fill="#A1ABB8"/>
<path d="M110.215 13.1678C111.277 11.7852 113.05 11.0939 115.535 11.0939C118.019 11.0939 119.793 11.7852 120.855 13.1678C121.917 14.5303 122.448 16.4539 122.448 18.9386C122.448 24.2085 120.143 26.8436 115.535 26.8436C110.926 26.8436 108.622 24.2085 108.622 18.9386C108.622 16.4539 109.153 14.5303 110.215 13.1678ZM113.31 22.335C113.731 23.0563 114.473 23.417 115.535 23.417C116.597 23.417 117.328 23.0563 117.729 22.335C118.15 21.6136 118.36 20.4815 118.36 18.9386C118.36 17.3957 118.15 16.2736 117.729 15.5723C117.328 14.871 116.597 14.5203 115.535 14.5203C114.473 14.5203 113.731 14.871 113.31 15.5723C112.91 16.2736 112.709 17.3957 112.709 18.9386C112.709 20.4815 112.91 21.6136 113.31 22.335Z" fill="#A1ABB8"/>
<path fill-rule="evenodd" clip-rule="evenodd" d="M17.8638 4.89802C16.0639 4.15248 14.1166 3.831 12.1727 3.9584C10.2287 4.08583 8.34008 4.65873 6.65292 5.63279L4.95064 6.6156L2.98503 3.21107L4.68731 2.22827C6.89669 0.95271 9.36988 0.202452 11.9156 0.035617C14.4613 -0.131248 17.0112 0.289755 19.3682 1.26603C21.7251 2.24233 23.8259 3.74772 25.508 5.66579C27.19 7.58383 28.4084 9.86315 29.0688 12.3274C29.729 14.7916 29.8136 17.3747 29.3159 19.8768C28.8181 22.379 27.7516 24.7331 26.1984 26.7571C24.6453 28.781 22.6476 30.4207 20.3595 31.5489C18.0715 32.6772 15.1202 33.2641 13.0033 33.2641C10.8864 33.2641 9.65038 32.9466 8.02712 32.2744C6.4495 31.6209 5.01605 30.6632 3.80856 29.4557C2.60111 28.2482 1.64331 26.8145 0.98982 25.2369C0.336361 23.6594 0 21.9685 0 20.2609C0 18.5533 0.336361 16.8624 0.98982 15.2848C1.64331 13.7071 2.60111 12.2737 3.80856 11.0662C5.01605 9.85873 6.4495 8.90091 8.02712 8.24745C9.60475 7.59396 11.2957 7.25763 13.0033 7.25763C14.7109 7.25763 16.4018 7.59396 17.9794 8.24745C19.557 8.90091 20.9905 9.85873 22.198 11.0662C23.4054 12.2737 24.3631 13.7071 25.0166 15.2848C25.2979 15.9634 25.5201 16.6629 25.6825 17.3758C25.7618 16.0225 25.6242 14.6615 25.2716 13.3448C24.7672 11.4631 23.8369 9.7225 22.5524 8.25782C21.2679 6.79311 19.6636 5.64353 17.8638 4.89802ZM5.15213 24.8063C5.37509 20.5801 8.87261 17.2218 13.1545 17.2218C17.2708 17.2218 20.6623 20.3255 21.1164 24.3203C21.2127 24.1279 21.3022 23.9319 21.3847 23.7326C21.8407 22.6319 22.0753 21.4523 22.0753 20.2609C22.0753 19.0695 21.8407 17.8898 21.3847 16.7892C20.9288 15.6885 20.2606 14.6884 19.4182 13.846C18.5758 13.0036 17.5757 12.3353 16.475 11.8794C15.3743 11.4235 14.1946 11.1888 13.0033 11.1888C11.8119 11.1888 10.6322 11.4235 9.53154 11.8794C8.43089 12.3353 7.43079 13.0036 6.58836 13.846C5.74596 14.6884 5.07771 15.6885 4.62178 16.7892C4.16588 17.8898 3.93122 19.0695 3.93122 20.2609C3.93122 21.4523 4.16588 22.6319 4.62178 23.7326C4.77507 24.1026 4.95231 24.4612 5.15213 24.8063ZM17.2369 25.2354C17.2369 27.4901 15.4091 29.3178 13.1545 29.3178C10.8998 29.3178 9.07204 27.4901 9.07204 25.2354C9.07204 22.9808 10.8998 21.153 13.1545 21.153C15.4091 21.153 17.2369 22.9808 17.2369 25.2354Z" fill="#A1ABB8"/>
</svg>
