<svg width="152" height="34" viewBox="0 0 152 34" fill="none" xmlns="http://www.w3.org/2000/svg">
<path fill-rule="evenodd" clip-rule="evenodd" d="M5.52439 8.40514C8.06072 4.99357 12.1222 2.78331 16.7 2.78331C21.3046 2.78331 25.3867 5.01964 27.92 8.46544C27.8122 8.57632 27.714 8.69122 27.6252 8.80599C27.161 9.40688 26.8119 10.1809 26.5323 10.9669C25.969 12.5477 25.5393 14.6126 25.1415 16.5462L25.1062 16.7201C24.7093 18.6501 24.3404 20.4451 23.8943 21.7776C23.6939 22.3762 23.5038 22.7994 23.3353 23.0705C23.1595 22.7973 22.96 22.3689 22.7488 21.7617C22.2717 20.3909 21.8705 18.5265 21.4451 16.5357L21.4313 16.4705C21.0226 14.5583 20.589 12.5294 20.0484 10.9763C19.7768 10.1962 19.4435 9.42994 19.0077 8.8346C18.5799 8.25034 17.8679 7.59096 16.8265 7.59096C15.7916 7.59096 15.0763 8.24319 14.6424 8.8209C14.1981 9.41236 13.8517 10.1755 13.5664 10.956C12.9917 12.5278 12.522 14.5838 12.0847 16.52L12.0396 16.7201C11.6066 18.6381 11.2019 20.4314 10.7425 21.7664C10.5671 22.2762 10.4016 22.6641 10.2518 22.9412C10.1054 22.6654 9.94404 22.2801 9.77342 21.7746C9.33267 20.468 8.94657 18.725 8.53189 16.8529L8.45932 16.5252C8.02964 14.5878 7.56351 12.5281 6.98071 10.9514C6.69115 10.1679 6.33698 9.40102 5.87864 8.80676C5.77487 8.67226 5.65691 8.53573 5.52439 8.40514ZM3.98933 11.0247C4.11013 11.2632 4.23791 11.5589 4.37005 11.9164C4.87449 13.2811 5.30188 15.1434 5.74199 17.1279L5.82762 17.5145C6.22833 19.3253 6.64516 21.2089 7.13612 22.6641C7.39724 23.4381 7.71258 24.1962 8.11816 24.7853C8.50168 25.3426 9.18972 26.0623 10.2477 26.0623C11.3026 26.0623 11.9923 25.346 12.3784 24.7914C12.7875 24.2035 13.108 23.4463 13.3744 22.6719C13.8851 21.1878 14.3199 19.2601 14.736 17.4152L14.7997 17.1331C15.2481 15.1474 15.6797 13.2814 16.1805 11.9117C16.4125 11.2771 16.6297 10.835 16.8187 10.5608C16.998 10.8327 17.2027 11.2677 17.4198 11.8914C17.897 13.2622 18.2979 15.1266 18.7233 17.1174L18.7372 17.1826C19.1459 19.0948 19.5795 21.1237 20.1201 22.6766C20.3917 23.4571 20.7249 24.2233 21.1608 24.8185C21.5886 25.4029 22.3006 26.0623 23.3418 26.0623C24.3886 26.0623 25.098 25.3969 25.5208 24.8073C25.95 24.2091 26.2728 23.4403 26.5335 22.6611C27.0348 21.1645 27.4334 19.2225 27.8131 17.3752L27.8678 17.1069C28.2768 15.1185 28.6694 13.2614 29.1543 11.9008C29.2594 11.6048 29.3628 11.3524 29.4615 11.1404C30.2045 12.8432 30.6165 14.7235 30.6165 16.7C30.6165 24.3858 24.386 30.6167 16.7 30.6167C9.01401 30.6167 2.78331 24.3858 2.78331 16.7C2.78331 14.6786 3.21428 12.7579 3.98933 11.0247ZM16.7 0C7.47684 0 0 7.47684 0 16.7C0 25.9231 7.47684 33.3999 16.7 33.3999C25.9233 33.3999 33.3997 25.9231 33.3997 16.7C33.3997 7.47684 25.9233 0 16.7 0ZM17.0161 10.3295C17.0175 10.3285 17.0181 10.3279 17.0181 10.3278C17.0181 10.3274 17.0148 10.3293 17.0084 10.3345C17.0119 10.3324 17.0145 10.3307 17.0161 10.3295ZM16.6334 10.3297C16.627 10.3257 16.6238 10.323 16.6238 10.3226C16.6238 10.3223 16.627 10.3243 16.6334 10.3297ZM23.1302 23.3347C23.1302 23.3347 23.1332 23.3317 23.1392 23.3278C23.1332 23.333 23.1302 23.3351 23.1302 23.3347ZM23.5349 23.3235C23.5413 23.3274 23.5448 23.33 23.5448 23.3304C23.5448 23.3308 23.5413 23.3287 23.5349 23.3235ZM9.96249 23.3597C9.96244 23.3593 9.96645 23.3554 9.97447 23.3498C9.96654 23.3571 9.96249 23.3601 9.96249 23.3597ZM10.5261 23.3524C10.5341 23.358 10.5381 23.3618 10.5381 23.3623C10.538 23.3627 10.534 23.3601 10.5261 23.3524Z" fill="#A1ABB8"/>
<path d="M42.6211 26.5867L38.5713 12.7341H42.1186L44.5204 22.7046L47.313 12.7341H51.2788L54.0719 22.7046L56.5017 12.7341H60.0485L55.9712 26.5867H52.2567L49.2959 16.2252L46.3356 26.5867H42.6211Z" fill="#A1ABB8"/>
<path d="M65.2533 26.9219C64.0617 26.9219 63.0843 26.7353 62.321 26.363C61.5578 25.9721 60.9898 25.4601 60.6174 24.827C60.2451 24.1939 60.0589 23.4958 60.0589 22.7325C60.0589 21.4478 60.5614 20.4051 61.5669 19.6045C62.5723 18.8039 64.0807 18.4035 66.0916 18.4035H69.6104V18.0684C69.6104 17.1188 69.3402 16.4206 68.8006 15.9738C68.2606 15.5269 67.59 15.3035 66.7897 15.3035C66.0636 15.3035 65.4305 15.4803 64.8905 15.8341C64.3505 16.1693 64.0152 16.672 63.885 17.3422H60.3938C60.4873 16.3368 60.8221 15.4617 61.3992 14.717C61.9952 13.9722 62.7585 13.4043 63.6894 13.0134C64.6207 12.6037 65.6632 12.3989 66.8173 12.3989C68.7911 12.3989 70.3456 12.8923 71.4817 13.8791C72.6173 14.8659 73.1853 16.2624 73.1853 18.0684V26.5867H70.1409L69.8061 24.3525C69.3962 25.0972 68.8192 25.7114 68.0744 26.1958C67.3483 26.6797 66.4079 26.9219 65.2533 26.9219ZM66.0636 24.1288C67.0875 24.1288 67.8788 23.7936 68.4373 23.1234C69.0144 22.4532 69.3777 21.6245 69.5268 20.6378H66.4825C65.5326 20.6378 64.8534 20.8147 64.4436 21.1685C64.0341 21.5036 63.829 21.9227 63.829 22.4252C63.829 22.9652 64.0341 23.3841 64.4436 23.6819C64.8534 23.9797 65.393 24.1288 66.0636 24.1288Z" fill="#A1ABB8"/>
<path d="M78.8128 26.5867L73.73 12.7341H77.4721L80.9914 23.2075L84.5102 12.7341H88.2527L83.1419 26.5867H78.8128Z" fill="#A1ABB8"/>
<path d="M95.4391 26.9219C94.0428 26.9219 92.8046 26.6237 91.7246 26.0281C90.645 25.4321 89.7977 24.5943 89.1832 23.5143C88.5686 22.4347 88.2618 21.1871 88.2618 19.772C88.2618 18.3384 88.5596 17.063 89.1552 15.9458C89.7697 14.8287 90.6075 13.9629 91.669 13.3485C92.7486 12.7154 94.0147 12.3989 95.4671 12.3989C96.8264 12.3989 98.0275 12.6968 99.07 13.2926C100.113 13.8884 100.923 14.7077 101.5 15.7503C102.095 16.7744 102.394 17.9194 102.394 19.1855C102.394 19.3904 102.384 19.6045 102.366 19.8279C102.366 20.0513 102.356 20.2841 102.338 20.5261H91.8086C91.8832 21.606 92.2556 22.4532 92.9257 23.0678C93.6144 23.6819 94.4431 23.9892 95.4115 23.9892C96.1373 23.9892 96.7428 23.831 97.2267 23.5143C97.7293 23.1794 98.1016 22.751 98.3438 22.2296H101.975C101.714 23.1049 101.276 23.9056 100.662 24.6318C100.066 25.339 99.3212 25.8975 98.4274 26.3074C97.5526 26.7168 96.5562 26.9219 95.4391 26.9219ZM95.4671 15.3035C94.5922 15.3035 93.8195 15.5549 93.1489 16.0575C92.4788 16.5416 92.0504 17.2864 91.8642 18.2918H98.7627C98.7067 17.3795 98.3718 16.6533 97.7573 16.1134C97.1427 15.5735 96.3795 15.3035 95.4671 15.3035Z" fill="#A1ABB8"/>
<path d="M104.283 26.5868V6.47815H107.858V26.5868H104.283Z" fill="#A1ABB8"/>
<path d="M117.124 26.9219C115.728 26.9219 114.49 26.6237 113.41 26.0281C112.33 25.4321 111.483 24.5943 110.868 23.5143C110.254 22.4347 109.947 21.1871 109.947 19.772C109.947 18.3384 110.245 17.063 110.84 15.9458C111.455 14.8287 112.292 13.9629 113.354 13.3485C114.434 12.7154 115.7 12.3989 117.152 12.3989C118.511 12.3989 119.712 12.6968 120.755 13.2926C121.797 13.8884 122.608 14.7077 123.185 15.7503C123.78 16.7744 124.079 17.9194 124.079 19.1855C124.079 19.3904 124.069 19.6045 124.051 19.8279C124.051 20.0513 124.041 20.2841 124.023 20.5261H113.494C113.568 21.606 113.94 22.4532 114.611 23.0678C115.299 23.6819 116.128 23.9892 117.096 23.9892C117.822 23.9892 118.428 23.831 118.912 23.5143C119.414 23.1794 119.787 22.751 120.029 22.2296H123.66C123.399 23.1049 122.961 23.9056 122.347 24.6318C121.751 25.339 121.006 25.8975 120.112 26.3074C119.237 26.7168 118.242 26.9219 117.124 26.9219ZM117.152 15.3035C116.277 15.3035 115.504 15.5549 114.834 16.0575C114.164 16.5416 113.735 17.2864 113.549 18.2918H120.448C120.392 17.3795 120.057 16.6533 119.442 16.1134C118.828 15.5735 118.064 15.3035 117.152 15.3035Z" fill="#A1ABB8"/>
<path d="M131.693 26.9219C130.465 26.9219 129.385 26.7263 128.454 26.3354C127.522 25.9255 126.778 25.367 126.219 24.6594C125.661 23.9522 125.326 23.1329 125.214 22.202H128.817C128.928 22.7416 129.226 23.2074 129.71 23.5983C130.213 23.9707 130.855 24.1569 131.637 24.1569C132.419 24.1569 132.987 23.9987 133.341 23.6819C133.713 23.3656 133.899 23.0023 133.899 22.5929C133.899 21.9969 133.639 21.5965 133.118 21.3919C132.596 21.1685 131.87 20.9543 130.939 20.7496C130.344 20.6192 129.738 20.4609 129.124 20.2748C128.509 20.0886 127.942 19.8558 127.42 19.5765C126.917 19.2786 126.508 18.9063 126.191 18.4594C125.875 17.9939 125.717 17.426 125.717 16.7557C125.717 15.5269 126.201 14.4936 127.169 13.6557C128.156 12.8178 129.533 12.3989 131.302 12.3989C132.941 12.3989 134.244 12.7806 135.212 13.544C136.199 14.3074 136.786 15.3593 136.972 16.6999H133.593C133.387 15.6759 132.615 15.1638 131.274 15.1638C130.604 15.1638 130.083 15.2942 129.71 15.5549C129.357 15.8155 129.18 16.1413 129.18 16.5323C129.18 16.942 129.45 17.2678 129.99 17.5098C130.53 17.7519 131.246 17.9753 132.14 18.1801C133.108 18.4035 133.993 18.6549 134.793 18.9342C135.613 19.1948 136.264 19.5952 136.749 20.1351C137.233 20.6564 137.474 21.4105 137.474 22.3972C137.493 23.254 137.27 24.0263 136.804 24.7154C136.339 25.4041 135.669 25.9441 134.793 26.3354C133.918 26.7263 132.885 26.9219 131.693 26.9219Z" fill="#A1ABB8"/>
<path d="M145.249 26.9219C144.021 26.9219 142.941 26.7263 142.01 26.3354C141.079 25.9255 140.334 25.367 139.776 24.6594C139.217 23.9522 138.882 23.1329 138.77 22.202H142.373C142.485 22.7416 142.783 23.2074 143.266 23.5983C143.769 23.9707 144.412 24.1569 145.194 24.1569C145.976 24.1569 146.544 23.9987 146.897 23.6819C147.27 23.3656 147.456 23.0023 147.456 22.5929C147.456 21.9969 147.195 21.5965 146.674 21.3919C146.153 21.1685 145.426 20.9543 144.496 20.7496C143.9 20.6192 143.295 20.4609 142.68 20.2748C142.066 20.0886 141.498 19.8558 140.976 19.5765C140.474 19.2786 140.064 18.9063 139.748 18.4594C139.431 17.9939 139.273 17.426 139.273 16.7557C139.273 15.5269 139.757 14.4936 140.725 13.6557C141.712 12.8178 143.09 12.3989 144.858 12.3989C146.497 12.3989 147.8 12.7806 148.769 13.544C149.755 14.3074 150.342 15.3593 150.528 16.6999H147.149C146.944 15.6759 146.171 15.1638 144.83 15.1638C144.16 15.1638 143.639 15.2942 143.266 15.5549C142.913 15.8155 142.736 16.1413 142.736 16.5323C142.736 16.942 143.006 17.2678 143.546 17.5098C144.086 17.7519 144.802 17.9753 145.696 18.1801C146.665 18.4035 147.549 18.6549 148.35 18.9342C149.169 19.1948 149.821 19.5952 150.305 20.1351C150.789 20.6564 151.031 21.4105 151.031 22.3972C151.049 23.254 150.826 24.0263 150.361 24.7154C149.895 25.4041 149.225 25.9441 148.35 26.3354C147.474 26.7263 146.441 26.9219 145.249 26.9219Z" fill="#A1ABB8"/>
</svg>
