<svg width="146" height="30" viewBox="0 0 146 30" fill="none" xmlns="http://www.w3.org/2000/svg">
<path d="M17.8365 4.08149H7.65985V0.901245H17.8365C21.3494 0.901245 24.1969 3.74893 24.1969 7.26173V17.4385H21.0167V7.26173C21.0167 5.50534 19.5929 4.08149 17.8365 4.08149Z" fill="#A1ABB8"/>
<path d="M6.38776 21.8908H16.5644V25.0711H6.38776C2.87497 25.0711 0.0272827 22.2235 0.0272827 18.7106V8.53381H3.20752V18.7106C3.20752 20.467 4.63135 21.8908 6.38776 21.8908Z" fill="#A1ABB8"/>
<path fill-rule="evenodd" clip-rule="evenodd" d="M18.4725 12.9861C18.4725 16.4989 15.625 19.3466 12.1122 19.3466C8.59939 19.3466 5.75171 16.4989 5.75171 12.9861C5.75171 9.47329 8.59939 6.62561 12.1122 6.62561C15.625 6.62561 18.4725 9.47329 18.4725 12.9861ZM15.2924 12.9861C15.2924 14.7425 13.8686 16.1663 12.1122 16.1663C10.3558 16.1663 8.93195 14.7425 8.93195 12.9861C8.93195 11.2297 10.3558 9.80585 12.1122 9.80585C13.8686 9.80585 15.2924 11.2297 15.2924 12.9861Z" fill="#A1ABB8"/>
<path d="M37.7686 23.0456C36.5643 23.0456 35.4801 22.8392 34.5162 22.4261C33.5526 21.9958 32.7954 21.3938 32.2449 20.6194C31.694 19.845 31.4186 18.9415 31.4186 17.9089H34.568C34.6367 18.6833 34.9379 19.3199 35.4715 19.8189C36.022 20.3182 36.7878 20.5676 37.7686 20.5676C38.7841 20.5676 39.5756 20.3268 40.1436 19.845C40.7113 19.3457 40.9953 18.709 40.9953 17.9346C40.9953 17.3323 40.8147 16.8419 40.4534 16.4634C40.109 16.0848 39.6704 15.7923 39.1368 15.5858C38.6206 15.3792 37.8977 15.1556 36.9685 14.9146C35.7985 14.6049 34.8434 14.2951 34.1034 13.9854C33.3805 13.6584 32.761 13.1593 32.2449 12.4882C31.7284 11.8171 31.4705 10.9222 31.4705 9.80368C31.4705 8.77118 31.7284 7.86771 32.2449 7.09335C32.761 6.31896 33.4839 5.72525 34.4132 5.31226C35.3424 4.89924 36.418 4.69275 37.6398 4.69275C39.3778 4.69275 40.7975 5.13156 41.8988 6.00921C43.0173 6.86962 43.6368 8.05703 43.7573 9.57136H40.5049C40.4534 8.91744 40.1436 8.35817 39.5756 7.89353C39.0076 7.4289 38.2593 7.19658 37.3301 7.19658C36.4867 7.19658 35.7985 7.4117 35.2648 7.84192C34.7315 8.27214 34.4647 8.89162 34.4647 9.70045C34.4647 10.2511 34.6281 10.7071 34.9551 11.0685C35.2992 11.4127 35.7295 11.688 36.2459 11.8945C36.7621 12.101 37.4675 12.3248 38.3624 12.5657C39.5499 12.8926 40.5135 13.2196 41.2535 13.5465C42.0107 13.8735 42.6474 14.3812 43.1636 15.0695C43.6972 15.7406 43.9637 16.6441 43.9637 17.7798C43.9637 18.6918 43.7144 19.5524 43.2154 20.3612C42.7333 21.1699 42.0193 21.8237 41.0729 22.323C40.1436 22.8049 39.0423 23.0456 37.7686 23.0456Z" fill="#A1ABB8"/>
<path d="M53.3213 8.40979C54.4401 8.40979 55.4381 8.64211 56.3158 9.10674C57.2104 9.57137 57.9075 10.2597 58.4065 11.1718C58.9055 12.0838 59.1551 13.1852 59.1551 14.4758V22.865H56.2382V14.9147C56.2382 13.6412 55.9199 12.6689 55.2832 11.9978C54.6465 11.3094 53.7773 10.9653 52.676 10.9653C51.5747 10.9653 50.6969 11.3094 50.0431 11.9978C49.4064 12.6689 49.0881 13.6412 49.0881 14.9147V22.865H46.1454V8.64211H49.0881V10.2683C49.5699 9.68322 50.1808 9.22721 50.9208 8.90025C51.6781 8.57329 52.4782 8.40979 53.3213 8.40979Z" fill="#A1ABB8"/>
<path d="M60.6371 15.689C60.6371 14.2607 60.9297 12.9959 61.5149 11.8945C62.1172 10.7932 62.9259 9.94136 63.9411 9.33906C64.9737 8.71954 66.1094 8.40979 67.3484 8.40979C68.4672 8.40979 69.4394 8.63352 70.2653 9.08095C71.1087 9.51114 71.7797 10.0532 72.2787 10.7071V8.64211H75.2471V22.865H72.2787V20.7482C71.7797 21.4195 71.0998 21.9786 70.2395 22.4261C69.379 22.8736 68.3982 23.0974 67.2969 23.0974C66.075 23.0974 64.9565 22.7877 63.9411 22.1682C62.9259 21.5312 62.1172 20.6537 61.5149 19.5353C60.9297 18.3993 60.6371 17.1173 60.6371 15.689ZM72.2787 15.7407C72.2787 14.7598 72.0723 13.9079 71.6592 13.1852C71.2636 12.4624 70.7385 11.9117 70.0847 11.5332C69.4308 11.1546 68.7251 10.9653 67.9679 10.9653C67.2107 10.9653 66.5053 11.1546 65.8514 11.5332C65.1973 11.8945 64.6639 12.4366 64.2508 13.1594C63.8552 13.8649 63.6574 14.7081 63.6574 15.689C63.6574 16.6699 63.8552 17.5304 64.2508 18.2702C64.6639 19.0102 65.1973 19.5782 65.8514 19.9738C66.5225 20.3526 67.2282 20.5418 67.9679 20.5418C68.7251 20.5418 69.4308 20.3526 70.0847 19.9738C70.7385 19.5954 71.2636 19.0445 71.6592 18.322C72.0723 17.582 72.2787 16.7215 72.2787 15.7407Z" fill="#A1ABB8"/>
<path d="M80.7642 10.733C81.2632 10.079 81.9431 9.52834 82.8034 9.08095C83.664 8.63352 84.6362 8.40979 85.7203 8.40979C86.9594 8.40979 88.0864 8.71954 89.1019 9.33906C90.1345 9.94136 90.9432 10.7932 91.5284 11.8945C92.1132 12.9959 92.4058 14.2607 92.4058 15.689C92.4058 17.1173 92.1132 18.3993 91.5284 19.5353C90.9432 20.6537 90.1345 21.5312 89.1019 22.1682C88.0864 22.7877 86.9594 23.0974 85.7203 23.0974C84.6362 23.0974 83.6726 22.8821 82.8295 22.4519C81.9861 22.0047 81.2979 21.4539 80.7642 20.8V29.6281H77.8216V8.64211H80.7642V10.733ZM89.4116 15.689C89.4116 14.7081 89.2052 13.8649 88.7921 13.1594C88.3962 12.4366 87.8629 11.8945 87.1918 11.5332C86.5376 11.1546 85.8323 10.9653 85.0751 10.9653C84.335 10.9653 83.6296 11.1546 82.9583 11.5332C82.3044 11.9117 81.7711 12.4624 81.358 13.1852C80.9624 13.9079 80.7642 14.7598 80.7642 15.7407C80.7642 16.7215 80.9624 17.582 81.358 18.322C81.7711 19.0445 82.3044 19.5954 82.9583 19.9738C83.6296 20.3526 84.335 20.5418 85.0751 20.5418C85.8323 20.5418 86.5376 20.3526 87.1918 19.9738C87.8629 19.5782 88.3962 19.0102 88.7921 18.2702C89.2052 17.5304 89.4116 16.6699 89.4116 15.689Z" fill="#A1ABB8"/>
<path d="M99.9363 23.0456C98.7319 23.0456 97.6478 22.8392 96.6839 22.4261C95.7203 21.9958 94.963 21.3938 94.4125 20.6194C93.8617 19.845 93.5863 18.9415 93.5863 17.9089H96.7357C96.8044 18.6833 97.1056 19.3199 97.6389 19.8189C98.1897 20.3182 98.9555 20.5676 99.9363 20.5676C100.952 20.5676 101.743 20.3268 102.311 19.845C102.879 19.3457 103.163 18.709 103.163 17.9346C103.163 17.3323 102.982 16.8419 102.621 16.4634C102.277 16.0848 101.838 15.7923 101.304 15.5858C100.788 15.3792 100.065 15.1556 99.1361 14.9146C97.9661 14.6049 97.0108 14.2951 96.2711 13.9854C95.5482 13.6584 94.9287 13.1593 94.4125 12.4882C93.8961 11.8171 93.6381 10.9222 93.6381 9.80368C93.6381 8.77118 93.8961 7.86771 94.4125 7.09335C94.9287 6.31896 95.6516 5.72525 96.5808 5.31226C97.5101 4.89924 98.5856 4.69275 99.8072 4.69275C101.545 4.69275 102.965 5.13156 104.066 6.00921C105.185 6.86962 105.804 8.05703 105.925 9.57136H102.673C102.621 8.91744 102.311 8.35817 101.743 7.89353C101.175 7.4289 100.427 7.19658 99.4974 7.19658C98.6543 7.19658 97.9661 7.4117 97.4325 7.84192C96.8992 8.27214 96.6323 8.89162 96.6323 9.70045C96.6323 10.2511 96.7958 10.7071 97.1227 11.0685C97.4668 11.4127 97.8971 11.688 98.4133 11.8945C98.9297 12.101 99.6351 12.3248 100.53 12.5657C101.718 12.8926 102.681 13.2196 103.421 13.5465C104.178 13.8735 104.815 14.3812 105.331 15.0695C105.865 15.7406 106.131 16.6441 106.131 17.7798C106.131 18.6918 105.882 19.5524 105.383 20.3612C104.901 21.1699 104.187 21.8237 103.241 22.323C102.311 22.8049 101.21 23.0456 99.9363 23.0456Z" fill="#A1ABB8"/>
<path d="M115.67 8.40973C116.754 8.40973 117.718 8.64204 118.561 9.10668C119.421 9.57131 120.092 10.2597 120.574 11.1717C121.073 12.0838 121.323 13.1851 121.323 14.4757V22.8649H118.406V14.9146C118.406 13.6411 118.088 12.6689 117.451 11.9977C116.814 11.3094 115.945 10.9652 114.844 10.9652C113.742 10.9652 112.865 11.3094 112.211 11.9977C111.574 12.6689 111.256 13.6411 111.256 14.9146V22.8649H108.313V3.76343H111.256V10.2941C111.755 9.69178 112.383 9.22714 113.14 8.90018C113.914 8.57322 114.758 8.40973 115.67 8.40973Z" fill="#A1ABB8"/>
<path d="M129.955 23.0974C128.613 23.0974 127.4 22.7963 126.315 22.1939C125.231 21.5744 124.379 20.7139 123.76 19.6125C123.14 18.494 122.831 17.2035 122.831 15.7407C122.831 14.2951 123.149 13.0131 123.786 11.8945C124.422 10.776 125.291 9.91554 126.393 9.31326C127.494 8.71096 128.724 8.40979 130.084 8.40979C131.444 8.40979 132.674 8.71096 133.775 9.31326C134.877 9.91554 135.746 10.776 136.382 11.8945C137.019 13.0131 137.338 14.2951 137.338 15.7407C137.338 17.186 137.011 18.4683 136.356 19.5868C135.703 20.7053 134.808 21.5744 133.672 22.1939C132.553 22.7963 131.314 23.0974 129.955 23.0974ZM129.955 20.5418C130.712 20.5418 131.418 20.3612 132.072 19.9999C132.743 19.6383 133.285 19.0964 133.698 18.3735C134.111 17.6506 134.317 16.7732 134.317 15.7407C134.317 14.7081 134.119 13.8391 133.724 13.1336C133.328 12.4108 132.803 11.8687 132.149 11.5073C131.495 11.146 130.789 10.9653 130.033 10.9653C129.275 10.9653 128.57 11.146 127.916 11.5073C127.279 11.8687 126.771 12.4108 126.393 13.1336C126.014 13.8391 125.825 14.7081 125.825 15.7407C125.825 17.2722 126.212 18.4597 126.986 19.3028C127.778 20.1287 128.767 20.5418 129.955 20.5418Z" fill="#A1ABB8"/>
<path d="M142.389 11.0427V18.9157C142.389 19.449 142.509 19.8364 142.75 20.0771C143.008 20.301 143.438 20.4127 144.041 20.4127H145.848V22.8649H143.525C142.199 22.8649 141.184 22.5552 140.479 21.9357C139.773 21.3162 139.42 20.3096 139.42 18.9157V11.0427H137.743V8.64208H139.42V5.10571H142.389V8.64208H145.848V11.0427H142.389Z" fill="#A1ABB8"/>
</svg>
