<svg width="26" height="26" viewBox="0 0 26 26" fill="none" xmlns="http://www.w3.org/2000/svg">
<path d="M6 1V4M20 1V4M1 22V7C1 5.34315 2.34315 4 4 4H22C23.6568 4 25 5.34315 25 7V22M1 22C1 23.6568 2.34315 25 4 25H22C23.6568 25 25 23.6568 25 22M1 22V12C1 10.3432 2.34315 9 4 9H22C23.6568 9 25 10.3432 25 12V22M13 14H13.01V14.01H13V14ZM13 17H13.01V17.01H13V17ZM13 20H13.01V20.01H13V20ZM10 17H10.01V17.01H10V17ZM10 20H10.01V20.01H10V20ZM7 17H7.01V17.01H7V17ZM7 20H7.01V20.01H7V20ZM16 14H16.01V14.01H16V14ZM16 17H16.01V17.01H16V17ZM16 20H16.01V20.01H16V20ZM19 14H19.01V14.01H19V14ZM19 17H19.01V17.01H19V17Z" stroke="#0F172A" stroke-width="1.5" stroke-linecap="round" stroke-linejoin="round"/>
</svg>
