<svg width="20" height="14" viewBox="0 0 20 14" fill="none" xmlns="http://www.w3.org/2000/svg">
<path d="M10.0333 0.00822561C10.525 0.00822561 16.3167 0.0246769 17.8167 0.419506C18.2425 0.535344 18.6299 0.759752 18.94 1.07018C19.2501 1.38061 19.472 1.76614 19.5833 2.18801C20 3.75088 20 7 20 7V7.0329C20 7.3866 19.975 10.3478 19.5833 11.8038C19.4733 12.2272 19.252 12.6144 18.9418 12.9263C18.6316 13.2383 18.2435 13.4639 17.8167 13.5805C16.35 13.9753 10.775 13.9918 10.0667 14H9.925C9.21667 14 3.64167 13.9753 2.18333 13.5887C1.75551 13.4715 1.36674 13.2446 1.05646 12.9311C0.746182 12.6176 0.52545 12.2287 0.416667 11.8038C0.0666667 10.4794 0.00833333 7.93772 0 7.19741V6.78613C0.00833333 6.04583 0.0666667 3.50411 0.416667 2.17979C0.529307 1.75942 0.751757 1.37561 1.06178 1.0667C1.3718 0.757802 1.75854 0.534633 2.18333 0.419506C3.68333 0.0164512 9.475 0 9.96667 0L10.0333 0.00822561ZM7.95 4.03878V9.94477L13.1833 7L7.95 4.047V4.03878Z" fill="black"/>
</svg>
