<svg width="20" height="20" viewBox="0 0 20 20" fill="none" xmlns="http://www.w3.org/2000/svg">
<path d="M14.149 0.00342342C14.9294 -0.0235233 15.7072 0.108837 16.4348 0.392427C17.1624 0.676017 17.8245 1.10489 18.3809 1.65287C18.9172 2.20919 19.3365 2.86737 19.6141 3.58852C19.8917 4.30966 20.0219 5.07914 19.997 5.85147V14.1487C19.997 15.8814 19.4305 17.3726 18.3476 18.4223C17.1987 19.4829 15.6784 20.0485 14.1157 19.9967H5.88515C4.33547 20.0447 2.82953 19.4789 1.69491 18.4223C1.13247 17.8589 0.692066 17.1858 0.401124 16.4448C0.110182 15.7038 -0.025062 14.9109 0.00381688 14.1154V5.85147C0.00381688 2.33598 2.33636 0.00342342 5.85182 0.00342342H14.149ZM14.1906 1.86113H5.88515C4.67722 1.86113 3.63591 2.21935 2.94448 2.90245C2.57502 3.29598 2.28869 3.75995 2.10262 4.26665C1.91655 4.77335 1.83454 5.31236 1.86152 5.85147V14.1154C1.86152 15.3649 2.21973 16.3646 2.94448 17.0977C3.7528 17.8126 4.80704 18.186 5.88515 18.139H14.1157C15.1938 18.186 16.248 17.8126 17.0563 17.0977C17.4444 16.7138 17.7485 16.2534 17.9492 15.7457C18.15 15.238 18.2431 14.6942 18.2226 14.1487V5.85147C18.2495 4.77905 17.8616 3.73761 17.1396 2.94411C16.7461 2.57464 16.2821 2.28831 15.7755 2.10224C15.2688 1.91616 14.7298 1.83416 14.1906 1.86113ZM10.0004 4.80182C12.8244 4.80182 15.1653 7.13437 15.1653 9.96675C15.1653 11.3366 14.6212 12.6503 13.6526 13.6189C12.6839 14.5875 11.3702 15.1317 10.0004 15.1317C8.63059 15.1317 7.31688 14.5875 6.34827 13.6189C5.37966 12.6503 4.8355 11.3366 4.8355 9.96675C4.8355 8.59693 5.37966 7.28321 6.34827 6.31459C7.31688 5.34598 8.63059 4.80182 10.0004 4.80182ZM10.0004 6.6512C9.12463 6.65558 8.28598 7.00542 7.6667 7.6247C7.04743 8.24398 6.69758 9.08264 6.6932 9.95842C6.69758 10.8342 7.04743 11.6729 7.6667 12.2921C8.28598 12.9114 9.12463 13.2613 10.0004 13.2656C10.8762 13.2613 11.7148 12.9114 12.3341 12.2921C12.9534 11.6729 13.3032 10.8342 13.3076 9.95842C13.3032 9.08264 12.9534 8.24398 12.3341 7.6247C11.7148 7.00542 10.8762 6.65558 10.0004 6.6512ZM15.3652 3.51058C15.6746 3.51058 15.9712 3.63346 16.1899 3.85218C16.4086 4.0709 16.5315 4.36754 16.5315 4.67686C16.5315 4.98617 16.4086 5.28282 16.1899 5.50154C15.9712 5.72026 15.6746 5.84313 15.3652 5.84313C15.0559 5.84313 14.7593 5.72026 14.5406 5.50154C14.3219 5.28282 14.199 4.98617 14.199 4.67686C14.199 4.36754 14.3219 4.0709 14.5406 3.85218C14.7593 3.63346 15.0559 3.51058 15.3652 3.51058Z" fill="black"/>
</svg>
