<svg width="20" height="16" viewBox="0 0 20 16" fill="none" xmlns="http://www.w3.org/2000/svg">
<path d="M20 1.896C19.2528 2.22435 18.4574 2.44021 17.6417 2.536C18.5069 2.02399 19.1494 1.22813 19.45 0.296001C18.6583 0.760001 17.7833 1.096 16.8417 1.272C16.4616 0.870882 15.9984 0.550503 15.4818 0.331443C14.9651 0.112383 14.4065 -0.000514336 13.8417 1.76149e-06C13.2134 0.00616793 12.5947 0.148947 12.0321 0.417611C11.4695 0.686275 10.9777 1.07384 10.5935 1.55118C10.2094 2.02853 9.94288 2.58324 9.81411 3.17365C9.68533 3.76405 9.6976 4.3748 9.85 4.96C8.2083 4.87396 6.60461 4.45267 5.14601 3.72426C3.68741 2.99585 2.40748 1.97709 1.39167 0.736001C0.861741 1.62599 0.698707 2.67438 0.934762 3.67414C1.17082 4.6739 1.7888 5.55235 2.66667 6.136C2.01304 6.11313 1.37512 5.93737 0.808333 5.624V5.68C0.808333 7.632 2.225 9.264 4.1 9.63999C3.49684 9.79873 2.8635 9.82064 2.25 9.70399C2.775 11.312 4.29167 12.48 6.08333 12.512C5.23875 13.1697 4.26485 13.6575 3.21969 13.9461C2.17454 14.2347 1.07954 14.3184 0 14.192C1.86707 15.3741 4.05511 16.0029 6.29167 16C13.8417 16 17.9583 9.83999 17.9583 4.504V3.984C18.7583 3.416 19.45 2.704 20 1.896Z" fill="black"/>
</svg>
