<svg width="140" height="27" viewBox="0 0 140 27" fill="none" xmlns="http://www.w3.org/2000/svg">
<path d="M31.0709 23.249V4.6875H38.5028C39.8683 4.6875 41.0072 4.88991 41.9196 5.29474C42.832 5.69956 43.5178 6.26148 43.977 6.9805C44.4362 7.69347 44.6658 8.5152 44.6658 9.4457C44.6658 10.1708 44.5208 10.8082 44.2307 11.358C43.9407 11.9018 43.5419 12.3489 43.0344 12.6994C42.5329 13.0438 41.9589 13.2885 41.3124 13.4335V13.6148C42.0193 13.645 42.6809 13.8444 43.2972 14.213C43.9196 14.5815 44.4241 15.0981 44.8108 15.7628C45.1975 16.4214 45.3908 17.2068 45.3908 18.1192C45.3908 19.1041 45.1461 19.9832 44.6567 20.7566C44.1733 21.524 43.4573 22.1312 42.5087 22.5783C41.5601 23.0254 40.3909 23.249 39.0012 23.249H31.0709ZM34.9953 20.0406H38.1946C39.2883 20.0406 40.0858 19.8322 40.5873 19.4152C41.0888 18.9923 41.3396 18.4304 41.3396 17.7295C41.3396 17.2159 41.2157 16.7627 40.968 16.37C40.7202 15.9773 40.3668 15.6691 39.9076 15.4456C39.4544 15.222 38.9136 15.1102 38.2853 15.1102H34.9953V20.0406ZM34.9953 12.4547H37.9046C38.4423 12.4547 38.9197 12.361 39.3366 12.1737C39.7595 11.9804 40.0919 11.7085 40.3335 11.358C40.5813 11.0076 40.7051 10.5877 40.7051 10.0982C40.7051 9.42757 40.4665 8.8868 39.9891 8.47593C39.5179 8.06506 38.8472 7.85963 37.9771 7.85963H34.9953V12.4547Z" fill="black"/>
<path d="M55.0126 17.3216V9.32787H58.8736V23.249H55.1667V20.7204H55.0217C54.7075 21.536 54.1848 22.1916 53.4537 22.6871C52.7287 23.1825 51.8435 23.4303 50.7982 23.4303C49.8677 23.4303 49.049 23.2188 48.3421 22.7958C47.6352 22.3729 47.0823 21.7717 46.6835 20.9923C46.2908 20.2128 46.0914 19.2793 46.0853 18.1917V9.32787H49.9463V17.5029C49.9523 18.3246 50.1729 18.9742 50.6079 19.4515C51.0429 19.9288 51.626 20.1675 52.3571 20.1675C52.8223 20.1675 53.2574 20.0618 53.6622 19.8503C54.067 19.6328 54.3933 19.3125 54.641 18.8896C54.8948 18.4666 55.0187 17.944 55.0126 17.3216Z" fill="black"/>
<path d="M66.5196 23.5209C65.0876 23.5209 63.855 23.2309 62.8218 22.6508C61.7946 22.0647 61.0031 21.237 60.4472 20.1675C59.8913 19.092 59.6134 17.8201 59.6134 16.3519C59.6134 14.9199 59.8913 13.6631 60.4472 12.5816C61.0031 11.5 61.7855 10.6571 62.7946 10.0529C63.8097 9.44872 65 9.14661 66.3655 9.14661C67.2839 9.14661 68.1389 9.29464 68.9304 9.59071C69.728 9.88073 70.4228 10.3188 71.0149 10.9049C71.6131 11.491 72.0784 12.2281 72.4107 13.1163C72.743 13.9985 72.9091 15.0317 72.9091 16.2159V17.2763H61.1541V14.8836H69.2748C69.2748 14.3278 69.1539 13.8353 68.9123 13.4063C68.6706 12.9773 68.3352 12.642 67.9062 12.4003C67.4833 12.1526 66.9909 12.0287 66.4289 12.0287C65.8428 12.0287 65.3232 12.1647 64.8701 12.4366C64.4229 12.7024 64.0725 13.0619 63.8187 13.5151C63.565 13.9622 63.4351 14.4607 63.429 15.0105V17.2854C63.429 17.9742 63.5559 18.5693 63.8097 19.0708C64.0695 19.5723 64.435 19.959 64.9063 20.2309C65.3776 20.5028 65.9365 20.6388 66.583 20.6388C67.012 20.6388 67.4047 20.5784 67.7612 20.4575C68.1177 20.3367 68.4228 20.1554 68.6766 19.9137C68.9304 19.672 69.1237 19.376 69.2567 19.0255L72.8276 19.2612C72.6463 20.1192 72.2747 20.8684 71.7128 21.5089C71.1569 22.1433 70.4379 22.6387 69.5558 22.9952C68.6796 23.3457 67.6676 23.5209 66.5196 23.5209Z" fill="black"/>
<path d="M77.5031 15.2008V23.249H73.6422V9.32787H77.3219V11.784H77.485C77.7931 10.9744 78.3097 10.3339 79.0348 9.8626C79.7599 9.38527 80.639 9.14661 81.6722 9.14661C82.6389 9.14661 83.4818 9.35808 84.2008 9.78104C84.9199 10.204 85.4788 10.8082 85.8775 11.5937C86.2763 12.3731 86.4757 13.3036 86.4757 14.3852V23.249H82.6148V15.074C82.6208 14.222 82.4033 13.5574 81.9622 13.0801C81.5211 12.5967 80.9139 12.355 80.1405 12.355C79.6209 12.355 79.1617 12.4668 78.7629 12.6903C78.3702 12.9139 78.062 13.2402 77.8385 13.6692C77.6209 14.0921 77.5092 14.6027 77.5031 15.2008Z" fill="black"/>
<path d="M94.022 23.5209C92.6142 23.5209 91.3967 23.2218 90.3695 22.6236C89.3484 22.0194 88.5599 21.1796 88.004 20.1041C87.4482 19.0225 87.1702 17.7688 87.1702 16.3428C87.1702 14.9048 87.4482 13.648 88.004 12.5725C88.5599 11.491 89.3484 10.6511 90.3695 10.0529C91.3967 9.44872 92.6142 9.14661 94.022 9.14661C95.4298 9.14661 96.6443 9.44872 97.6654 10.0529C98.6926 10.6511 99.4841 11.491 100.04 12.5725C100.596 13.648 100.874 14.9048 100.874 16.3428C100.874 17.7688 100.596 19.0225 100.04 20.1041C99.4841 21.1796 98.6926 22.0194 97.6654 22.6236C96.6443 23.2218 95.4298 23.5209 94.022 23.5209ZM94.0401 20.53C94.6806 20.53 95.2154 20.3488 95.6443 19.9862C96.0733 19.6177 96.3966 19.1162 96.6141 18.4817C96.8377 17.8473 96.9494 17.1253 96.9494 16.3156C96.9494 15.506 96.8377 14.7839 96.6141 14.1495C96.3966 13.5151 96.0733 13.0136 95.6443 12.645C95.2154 12.2764 94.6806 12.0922 94.0401 12.0922C93.3936 12.0922 92.8498 12.2764 92.4088 12.645C91.9737 13.0136 91.6444 13.5151 91.4209 14.1495C91.2034 14.7839 91.0946 15.506 91.0946 16.3156C91.0946 17.1253 91.2034 17.8473 91.4209 18.4817C91.6444 19.1162 91.9737 19.6177 92.4088 19.9862C92.8498 20.3488 93.3936 20.53 94.0401 20.53Z" fill="black"/>
<path d="M113.181 13.2976L109.646 13.5151C109.586 13.213 109.456 12.9411 109.256 12.6994C109.057 12.4517 108.794 12.2553 108.468 12.1103C108.147 11.9592 107.764 11.8837 107.317 11.8837C106.719 11.8837 106.214 12.0106 105.803 12.2644C105.392 12.5121 105.187 12.8444 105.187 13.2613C105.187 13.5936 105.32 13.8746 105.586 14.1042C105.851 14.3338 106.308 14.5181 106.954 14.6571L109.474 15.1646C110.827 15.4425 111.836 15.8897 112.501 16.506C113.165 17.1223 113.498 17.9319 113.498 18.9349C113.498 19.8473 113.229 20.6478 112.691 21.3367C112.159 22.0255 111.428 22.5632 110.498 22.9499C109.573 23.3306 108.507 23.5209 107.299 23.5209C105.456 23.5209 103.987 23.1372 102.894 22.3699C101.806 21.5965 101.169 20.5451 100.981 19.2159L104.779 19.0165C104.894 19.5784 105.172 20.0074 105.613 20.3034C106.054 20.5935 106.619 20.7385 107.308 20.7385C107.984 20.7385 108.528 20.6086 108.939 20.3488C109.356 20.0829 109.567 19.7415 109.573 19.3246C109.567 18.9742 109.419 18.6872 109.129 18.4636C108.839 18.234 108.392 18.0588 107.788 17.9379L105.377 17.4576C104.018 17.1857 103.006 16.7144 102.341 16.0437C101.682 15.373 101.353 14.5181 101.353 13.4788C101.353 12.5846 101.595 11.8142 102.078 11.1677C102.568 10.5212 103.253 10.0227 104.136 9.67228C105.024 9.32183 106.063 9.14661 107.253 9.14661C109.012 9.14661 110.395 9.5182 111.404 10.2614C112.419 11.0046 113.011 12.0166 113.181 13.2976Z" fill="black"/>
<path d="M121.535 23.249H117.329L123.737 4.6875H128.794L135.193 23.249H130.988L126.338 8.92909H126.193L121.535 23.249ZM121.272 15.9531H131.205V19.0165H121.272V15.9531Z" fill="black"/>
<path d="M137.825 23.4846C137.227 23.4846 136.713 23.2732 136.284 22.8502C135.861 22.4212 135.65 21.9076 135.65 21.3095C135.65 20.7173 135.861 20.2098 136.284 19.7868C136.713 19.3639 137.227 19.1524 137.825 19.1524C138.405 19.1524 138.912 19.3639 139.347 19.7868C139.782 20.2098 140 20.7173 140 21.3095C140 21.7082 139.897 22.0738 139.692 22.4061C139.492 22.7324 139.23 22.9952 138.903 23.1946C138.577 23.388 138.218 23.4846 137.825 23.4846Z" fill="black"/>
<path fill-rule="evenodd" clip-rule="evenodd" d="M0 0.768066V26.7546H13.6396C15.5852 26.7546 17.2221 26.4416 18.5502 25.8157C19.8783 25.1897 20.8807 24.3395 21.5574 23.2652C22.2426 22.1824 22.5852 20.9516 22.5852 19.5728C22.5852 18.2955 22.3145 17.1958 21.7731 16.2737C21.2317 15.3432 20.5254 14.6199 19.6541 14.1039C18.7913 13.5879 17.865 13.3088 16.8753 13.2665V13.0127C17.7804 12.8097 18.584 12.4671 19.2861 11.9849C19.9967 11.4943 20.555 10.8683 20.961 10.107C21.3671 9.3372 21.5701 8.44476 21.5701 7.42966C21.5701 6.12695 21.2487 4.9765 20.6058 3.97832C19.9629 2.97168 19.0027 2.18498 17.7254 1.61821C16.4481 1.05145 14.8535 0.768066 12.9418 0.768066H0ZM17.8297 19.9891C17.8297 19.1932 17.3724 18.468 16.6542 18.1249L7.24932 13.6325V13.4751L16.6525 8.99221C17.3717 8.64937 17.8297 7.92365 17.8297 7.12697C17.8297 5.61175 16.2529 4.61181 14.8823 5.25779L3.10081 10.8105L3.10081 16.2971L14.8819 21.8575C16.2523 22.5043 17.8297 21.5045 17.8297 19.9891Z" fill="url(#paint0_linear_2561_20979)"/>
<defs>
<linearGradient id="paint0_linear_2561_20979" x1="11.2926" y1="0.768066" x2="11.2926" y2="26.7546" gradientUnits="userSpaceOnUse">
<stop stop-color="#8061F9"/>
<stop offset="1" stop-color="#F79F1F"/>
</linearGradient>
</defs>
</svg>
