<svg xmlns="http://www.w3.org/2000/svg" xmlns:xlink="http://www.w3.org/1999/xlink" width="230" zoomAndPan="magnify" viewBox="0 0 172.5 44.999999" height="60" preserveAspectRatio="xMidYMid meet" version="1.0"><defs><g/><clipPath id="5c5bd270b2"><path d="M 2.25 7.007812 L 31.777344 7.007812 L 31.777344 36.53125 L 2.25 36.53125 Z M 2.25 7.007812 " clip-rule="nonzero"/></clipPath></defs><g clip-path="url(#5c5bd270b2)"><path fill="#5a66ff" d="M 31.769531 21.769531 C 31.769531 22.738281 31.675781 23.699219 31.488281 24.648438 C 31.296875 25.601562 31.019531 26.523438 30.648438 27.417969 C 30.277344 28.316406 29.824219 29.164062 29.285156 29.972656 C 28.746094 30.777344 28.132812 31.523438 27.449219 32.210938 C 26.761719 32.894531 26.019531 33.507812 25.210938 34.046875 C 24.40625 34.582031 23.554688 35.039062 22.660156 35.410156 C 21.765625 35.78125 20.84375 36.058594 19.890625 36.25 C 18.941406 36.4375 17.980469 36.53125 17.011719 36.53125 C 16.042969 36.53125 15.085938 36.4375 14.132812 36.25 C 13.183594 36.058594 12.261719 35.78125 11.367188 35.410156 C 10.46875 35.039062 9.621094 34.582031 8.8125 34.046875 C 8.007812 33.507812 7.261719 32.894531 6.578125 32.210938 C 5.890625 31.523438 5.28125 30.777344 4.742188 29.972656 C 4.203125 29.164062 3.75 28.316406 3.378906 27.417969 C 3.007812 26.523438 2.726562 25.601562 2.539062 24.648438 C 2.351562 23.699219 2.253906 22.738281 2.253906 21.769531 C 2.253906 20.800781 2.351562 19.839844 2.539062 18.890625 C 2.726562 17.9375 3.007812 17.015625 3.378906 16.121094 C 3.75 15.226562 4.203125 14.375 4.742188 13.566406 C 5.28125 12.761719 5.890625 12.015625 6.578125 11.332031 C 7.261719 10.644531 8.007812 10.035156 8.8125 9.496094 C 9.621094 8.957031 10.46875 8.5 11.367188 8.132812 C 12.261719 7.761719 13.183594 7.480469 14.132812 7.289062 C 15.085938 7.101562 16.042969 7.007812 17.011719 7.007812 C 17.980469 7.007812 18.941406 7.101562 19.890625 7.289062 C 20.84375 7.480469 21.765625 7.761719 22.660156 8.132812 C 23.554688 8.5 24.40625 8.957031 25.210938 9.496094 C 26.019531 10.035156 26.761719 10.644531 27.449219 11.332031 C 28.132812 12.015625 28.746094 12.761719 29.285156 13.566406 C 29.824219 14.375 30.277344 15.226562 30.648438 16.121094 C 31.019531 17.015625 31.296875 17.9375 31.488281 18.890625 C 31.675781 19.839844 31.769531 20.800781 31.769531 21.769531 Z M 31.769531 21.769531 " fill-opacity="1" fill-rule="nonzero"/></g><path fill="#ffffff" d="M 8.898438 25.113281 C 8.898438 25.113281 8.824219 27.550781 12.574219 28.113281 C 12.574219 28.113281 15.3125 31.527344 18.796875 28 C 18.796875 28 19.882812 29.953125 22.359375 28.9375 C 22.359375 28.9375 23.632812 30.964844 26.894531 29.3125 C 26.894531 29.3125 25.769531 28.976562 25.921875 28 C 26.070312 27.027344 25.546875 26.164062 25.171875 25.675781 C 25.171875 25.675781 26.257812 25.414062 26.371094 23.613281 C 26.371094 23.613281 30.757812 20.839844 26.449219 17.613281 C 26.449219 17.613281 25.960938 14.089844 21.796875 14.652344 C 21.796875 14.652344 19.738281 11.949219 16.289062 14.199219 C 16.289062 14.199219 12.988281 12.777344 10.964844 15.550781 C 10.964844 15.550781 7.40625 16.234375 7.984375 19.8125 Z M 8.898438 25.113281 " fill-opacity="1" fill-rule="nonzero"/><path fill="#ff9b82" d="M 7.988281 19.8125 C 8.347656 19.8125 8.695312 19.882812 9.027344 20.019531 C 9.355469 20.160156 9.648438 20.355469 9.902344 20.609375 C 10.15625 20.863281 10.351562 21.15625 10.488281 21.488281 C 10.625 21.820312 10.695312 22.167969 10.691406 22.527344 C 10.691406 22.886719 10.621094 23.230469 10.484375 23.5625 C 10.347656 23.894531 10.152344 24.1875 9.894531 24.441406 C 9.640625 24.691406 9.347656 24.886719 9.015625 25.023438 C 8.683594 25.160156 8.339844 25.230469 7.980469 25.230469 C 7.621094 25.230469 7.277344 25.160156 6.945312 25.019531 C 6.613281 24.882812 6.320312 24.6875 6.066406 24.433594 C 5.8125 24.179688 5.617188 23.886719 5.480469 23.554688 C 5.34375 23.222656 5.277344 22.875 5.277344 22.515625 C 5.277344 22.15625 5.347656 21.8125 5.484375 21.480469 C 5.625 21.148438 5.820312 20.855469 6.074219 20.601562 C 6.328125 20.347656 6.621094 20.152344 6.953125 20.015625 C 7.285156 19.878906 7.628906 19.8125 7.988281 19.8125 Z M 7.988281 19.8125 " fill-opacity="1" fill-rule="nonzero"/><path fill="#ff9b82" d="M 18.742188 22.273438 C 18.742188 22.632812 18.671875 22.980469 18.535156 23.3125 C 18.398438 23.644531 18.203125 23.9375 17.949219 24.191406 C 17.695312 24.445312 17.402344 24.640625 17.070312 24.777344 C 16.738281 24.914062 16.394531 24.984375 16.035156 24.984375 C 15.675781 24.984375 15.328125 24.914062 14.996094 24.777344 C 14.667969 24.640625 14.375 24.445312 14.121094 24.191406 C 13.867188 23.9375 13.667969 23.644531 13.53125 23.3125 C 13.394531 22.980469 13.328125 22.632812 13.328125 22.273438 C 13.328125 21.917969 13.394531 21.570312 13.53125 21.238281 C 13.667969 20.90625 13.867188 20.613281 14.121094 20.359375 C 14.375 20.105469 14.667969 19.910156 14.996094 19.773438 C 15.328125 19.636719 15.675781 19.566406 16.035156 19.566406 C 16.394531 19.566406 16.738281 19.636719 17.070312 19.773438 C 17.402344 19.910156 17.695312 20.105469 17.949219 20.359375 C 18.203125 20.613281 18.398438 20.90625 18.535156 21.238281 C 18.671875 21.570312 18.742188 21.917969 18.742188 22.273438 Z M 18.742188 22.273438 " fill-opacity="1" fill-rule="nonzero"/><path fill="#0e0e5e" d="M 26.820312 23.890625 C 29.839844 22.601562 29.65625 18.167969 26.542969 17.140625 C 26.285156 14.96875 23.949219 13.492188 21.855469 14.195312 C 20.621094 12.234375 17.667969 12.035156 16.164062 13.753906 C 14.269531 12.824219 11.746094 13.339844 10.734375 15.246094 C 8.652344 15.246094 7.160156 17.40625 7.410156 19.40625 C 3.621094 20.578125 4.640625 26.117188 8.632812 25.820312 C 8.910156 27.453125 10.898438 28.84375 12.519531 28.671875 C 13.039062 29.292969 13.6875 29.699219 14.472656 29.902344 C 14.820312 29.996094 15.179688 30.042969 15.542969 30.042969 C 16.644531 30.042969 17.824219 29.613281 18.664062 28.582031 C 19.507812 29.527344 20.960938 29.890625 22.15625 29.4375 C 23.015625 30.234375 23.945312 30.511719 24.777344 30.511719 C 25.792969 30.511719 26.664062 30.101562 27.082031 29.730469 C 27.140625 29.679688 27.183594 29.621094 27.210938 29.550781 C 27.238281 29.480469 27.246094 29.40625 27.238281 29.332031 C 27.230469 29.257812 27.207031 29.1875 27.167969 29.125 C 27.125 29.0625 27.074219 29.011719 27.007812 28.972656 C 26.414062 28.628906 26.40625 28.316406 26.382812 27.695312 C 26.363281 27.179688 26.34375 26.554688 25.921875 25.859375 C 26.515625 25.335938 26.816406 24.679688 26.820312 23.890625 Z M 5.960938 22.558594 C 5.960938 22.25 6.019531 21.949219 6.140625 21.664062 C 6.257812 21.375 6.429688 21.121094 6.648438 20.902344 C 6.867188 20.683594 7.121094 20.515625 7.410156 20.394531 C 7.695312 20.277344 7.996094 20.214844 8.304688 20.214844 C 11.40625 20.335938 11.40625 24.78125 8.304688 24.902344 C 7.996094 24.902344 7.695312 24.84375 7.410156 24.722656 C 7.121094 24.605469 6.867188 24.4375 6.648438 24.214844 C 6.429688 23.996094 6.257812 23.742188 6.140625 23.457031 C 6.019531 23.167969 5.960938 22.871094 5.960938 22.558594 Z M 25.867188 23.636719 C 25.902344 23.871094 25.886719 24.105469 25.824219 24.335938 C 25.761719 24.570312 25.65625 24.777344 25.503906 24.964844 C 25.355469 25.152344 25.171875 25.300781 24.960938 25.410156 C 24.746094 25.519531 24.523438 25.585938 24.28125 25.601562 C 24.042969 25.617188 23.8125 25.585938 23.585938 25.503906 C 23.359375 25.425781 23.160156 25.300781 22.984375 25.136719 C 22.8125 24.972656 22.675781 24.78125 22.582031 24.5625 C 22.488281 24.339844 22.441406 24.109375 22.445312 23.871094 C 22.445312 23.742188 22.398438 23.632812 22.304688 23.539062 C 22.214844 23.449219 22.105469 23.402344 21.976562 23.402344 C 21.847656 23.402344 21.734375 23.449219 21.644531 23.539062 C 21.554688 23.632812 21.507812 23.742188 21.507812 23.871094 C 21.480469 25.707031 23.429688 27.039062 25.125 26.347656 C 25.417969 26.835938 25.433594 27.273438 25.449219 27.730469 C 25.464844 28.25 25.488281 28.820312 25.953125 29.328125 C 25.289062 29.617188 24.148438 29.824219 23.035156 28.957031 C 23.144531 28.871094 23.246094 28.78125 23.34375 28.679688 C 23.765625 28.226562 23.136719 27.597656 22.683594 28.019531 C 21.652344 29.09375 19.777344 28.839844 19.058594 27.542969 C 18.96875 27.386719 18.832031 27.308594 18.652344 27.308594 C 18.472656 27.308594 18.335938 27.386719 18.246094 27.542969 C 17.421875 28.980469 15.878906 29.308594 14.714844 29 C 13.699219 28.726562 12.609375 27.847656 12.609375 26.203125 C 12.585938 25.582031 11.695312 25.582031 11.671875 26.203125 C 11.667969 26.726562 11.765625 27.234375 11.957031 27.722656 C 10.921875 27.617188 9.691406 26.625 9.546875 25.59375 C 11.246094 24.941406 12.109375 22.773438 11.246094 21.113281 C 11.859375 20.847656 12.476562 20.847656 13.09375 21.113281 C 12.007812 23.234375 13.636719 25.871094 16.03125 25.839844 C 16.464844 25.839844 16.882812 25.753906 17.285156 25.589844 C 17.6875 25.421875 18.039062 25.1875 18.347656 24.878906 C 18.65625 24.570312 18.890625 24.214844 19.058594 23.816406 C 19.226562 23.414062 19.308594 22.996094 19.308594 22.5625 C 19.3125 19.589844 15.617188 18.167969 13.632812 20.328125 C 13.171875 20.101562 12.683594 19.988281 12.167969 19.988281 C 11.652344 19.988281 11.167969 20.101562 10.707031 20.328125 C 10.066406 19.640625 9.277344 19.292969 8.339844 19.28125 C 8.261719 18.457031 8.519531 17.609375 9.046875 17 C 9.285156 16.714844 9.574219 16.503906 9.917969 16.359375 C 10.261719 16.214844 10.617188 16.15625 10.984375 16.1875 C 11.203125 16.203125 11.355469 16.109375 11.445312 15.910156 C 11.785156 15.144531 12.355469 14.636719 13.15625 14.390625 C 13.9375 14.140625 14.828125 14.199219 15.621094 14.535156 C 15.464844 14.835938 15.351562 15.15625 15.289062 15.488281 C 14.914062 15.457031 14.542969 15.484375 14.175781 15.566406 C 13.8125 15.648438 13.46875 15.785156 13.144531 15.976562 C 12.820312 16.164062 12.53125 16.398438 12.28125 16.679688 C 12.03125 16.957031 11.828125 17.269531 11.675781 17.609375 C 11.617188 17.726562 11.609375 17.851562 11.65625 17.972656 C 11.699219 18.097656 11.785156 18.1875 11.902344 18.242188 C 12.023438 18.296875 12.144531 18.296875 12.269531 18.25 C 12.390625 18.203125 12.476562 18.117188 12.527344 17.996094 C 13.035156 16.835938 14.359375 16.183594 15.585938 16.480469 C 15.726562 16.515625 15.855469 16.488281 15.972656 16.402344 C 16.089844 16.3125 16.152344 16.195312 16.160156 16.050781 C 16.1875 15.535156 16.347656 15.066406 16.644531 14.640625 C 16.660156 14.625 16.671875 14.609375 16.683594 14.59375 C 17.824219 13.007812 20.363281 13.195312 21.234375 14.984375 C 21.289062 15.097656 21.378906 15.171875 21.496094 15.214844 C 21.613281 15.257812 21.730469 15.253906 21.847656 15.199219 C 23.53125 14.402344 25.585938 15.652344 25.636719 17.519531 C 25.644531 17.757812 25.765625 17.902344 25.996094 17.957031 C 28.628906 18.582031 28.765625 22.304688 26.191406 23.125 C 26.082031 23.160156 25.996094 23.222656 25.9375 23.320312 C 25.875 23.417969 25.851562 23.519531 25.867188 23.632812 Z M 16.027344 20.21875 C 16.339844 20.21875 16.636719 20.277344 16.925781 20.394531 C 17.210938 20.515625 17.464844 20.683594 17.683594 20.902344 C 17.90625 21.125 18.074219 21.378906 18.191406 21.664062 C 18.3125 21.949219 18.371094 22.25 18.371094 22.5625 C 18.253906 25.664062 13.804688 25.660156 13.691406 22.5625 C 13.691406 22.25 13.75 21.949219 13.867188 21.664062 C 13.988281 21.378906 14.15625 21.125 14.375 20.902344 C 14.597656 20.683594 14.847656 20.515625 15.136719 20.394531 C 15.421875 20.277344 15.722656 20.21875 16.03125 20.21875 Z M 16.027344 20.21875 " fill-opacity="1" fill-rule="nonzero"/><path fill="#0e0e5e" d="M 23.277344 17.710938 C 23.359375 17.617188 23.394531 17.507812 23.390625 17.386719 C 23.386719 17.265625 23.339844 17.160156 23.253906 17.074219 C 23.167969 16.984375 23.0625 16.941406 22.941406 16.9375 C 22.816406 16.929688 22.710938 16.96875 22.617188 17.050781 C 21.609375 18.070312 19.828125 17.332031 19.839844 15.898438 C 19.84375 15.765625 19.800781 15.652344 19.707031 15.554688 C 19.617188 15.460938 19.503906 15.414062 19.371094 15.414062 C 19.238281 15.414062 19.125 15.460938 19.035156 15.554688 C 18.941406 15.652344 18.898438 15.765625 18.902344 15.898438 C 18.886719 18.160156 21.695312 19.324219 23.277344 17.710938 Z M 23.277344 17.710938 " fill-opacity="1" fill-rule="nonzero"/><path fill="#0e0e5e" d="M 26.492188 20.351562 C 26.527344 20.226562 26.511719 20.105469 26.445312 19.996094 C 26.382812 19.882812 26.289062 19.808594 26.164062 19.777344 C 25.6875 19.652344 25.214844 19.644531 24.738281 19.753906 C 24.257812 19.863281 23.832031 20.074219 23.460938 20.390625 C 22.828125 19.933594 21.886719 19.886719 21.207031 20.296875 C 21.097656 20.363281 21.027344 20.457031 20.996094 20.582031 C 20.964844 20.703125 20.980469 20.820312 21.046875 20.929688 C 21.109375 21.039062 21.203125 21.113281 21.324219 21.148438 C 21.445312 21.183594 21.5625 21.167969 21.675781 21.109375 C 22.484375 20.628906 23.535156 21.304688 23.425781 22.242188 C 23.414062 22.371094 23.445312 22.484375 23.527344 22.585938 C 23.609375 22.6875 23.714844 22.742188 23.84375 22.757812 C 23.972656 22.769531 24.085938 22.734375 24.1875 22.652344 C 24.285156 22.570312 24.34375 22.46875 24.355469 22.339844 C 24.402344 21.890625 24.316406 21.472656 24.09375 21.082031 C 24.632812 20.640625 25.242188 20.507812 25.921875 20.679688 C 26.046875 20.710938 26.164062 20.695312 26.277344 20.632812 C 26.386719 20.566406 26.460938 20.472656 26.496094 20.347656 Z M 26.492188 20.351562 " fill-opacity="1" fill-rule="nonzero"/><g fill="#000000" fill-opacity="1"><g transform="translate(34.324453, 30.023172)"><g><path d="M 5.695312 -3.453125 L 5.695312 -7.003906 L 11.6875 -7.003906 L 11.6875 -10.378906 L 5.695312 -10.378906 L 5.695312 -13.808594 L 12.328125 -13.808594 L 12.328125 -17.257812 L 1.972656 -17.257812 L 1.972656 0 L 12.597656 0 L 12.597656 -3.453125 Z M 5.695312 -3.453125 "/></g></g></g><g fill="#000000" fill-opacity="1"><g transform="translate(48.099755, 30.023172)"><g><path d="M 11.488281 -18.097656 L 11.488281 -12.574219 C 10.453125 -13.289062 9.222656 -13.683594 7.839844 -13.683594 C 3.796875 -13.683594 0.839844 -10.675781 0.839844 -6.632812 C 0.839844 -2.613281 3.796875 0.417969 7.839844 0.417969 C 9.46875 0.417969 10.898438 -0.148438 12.007812 -1.085938 L 12.425781 0.0234375 L 15.089844 0.0234375 L 15.089844 -18.097656 Z M 8.136719 -2.984375 C 6.039062 -2.984375 4.511719 -4.5625 4.511719 -6.632812 C 4.511719 -8.726562 6.039062 -10.28125 8.136719 -10.28125 C 10.230469 -10.28125 11.761719 -8.726562 11.761719 -6.632812 C 11.761719 -4.5625 10.230469 -2.984375 8.136719 -2.984375 Z M 8.136719 -2.984375 "/></g></g></g><g fill="#000000" fill-opacity="1"><g transform="translate(64.930754, 30.023172)"><g><path d="M 7.792969 0.394531 C 11.5625 0.394531 14.054688 -2.023438 14.054688 -5.621094 L 14.054688 -13.3125 L 10.453125 -13.3125 L 10.453125 -6.015625 C 10.453125 -4.140625 9.46875 -3.007812 7.792969 -3.007812 C 6.140625 -3.007812 5.128906 -4.117188 5.128906 -6.015625 L 5.128906 -13.3125 L 1.527344 -13.3125 L 1.527344 -5.621094 C 1.527344 -2.023438 4.042969 0.394531 7.792969 0.394531 Z M 7.792969 0.394531 "/></g></g></g><g fill="#000000" fill-opacity="1"><g transform="translate(80.52962, 30.023172)"><g><path d="M 7.914062 0.394531 C 11.390625 0.394531 14.128906 -1.875 14.746094 -5.226562 L 11.121094 -5.226562 C 10.503906 -3.796875 9.371094 -3.007812 7.914062 -3.007812 C 5.992188 -3.007812 4.488281 -4.609375 4.488281 -6.65625 C 4.488281 -8.726562 5.964844 -10.304688 7.914062 -10.304688 C 9.34375 -10.304688 10.554688 -9.515625 11.121094 -8.210938 L 14.695312 -8.210938 C 14.054688 -11.488281 11.390625 -13.683594 7.9375 -13.683594 C 3.894531 -13.683594 0.839844 -10.675781 0.839844 -6.683594 C 0.839844 -2.6875 3.894531 0.394531 7.914062 0.394531 Z M 7.914062 0.394531 "/></g></g></g><g fill="#000000" fill-opacity="1"><g transform="translate(95.931347, 30.023172)"><g><path d="M 12.574219 -13.3125 L 12.203125 -12.058594 C 11.046875 -13.066406 9.542969 -13.683594 7.816406 -13.683594 C 3.820312 -13.683594 0.839844 -10.675781 0.839844 -6.65625 C 0.839844 -2.636719 3.820312 0.394531 7.816406 0.394531 C 9.515625 0.394531 10.996094 -0.195312 12.128906 -1.207031 L 12.453125 0 L 15.261719 0 L 15.261719 -13.3125 Z M 8.113281 -3.007812 C 6.015625 -3.007812 4.488281 -4.585938 4.488281 -6.65625 C 4.488281 -8.753906 6.015625 -10.304688 8.113281 -10.304688 C 10.207031 -10.304688 11.734375 -8.753906 11.734375 -6.65625 C 11.734375 -4.5625 10.207031 -3.007812 8.113281 -3.007812 Z M 8.113281 -3.007812 "/></g></g></g><g fill="#000000" fill-opacity="1"><g transform="translate(112.934848, 30.023172)"><g><path d="M 8.234375 -3.207031 C 6.902344 -3.207031 6.164062 -3.945312 6.164062 -5.226562 L 6.164062 -10.40625 L 9.789062 -10.40625 L 9.789062 -13.3125 L 6.113281 -13.3125 L 6.113281 -16.765625 L 5.425781 -16.765625 L 0.171875 -11.195312 L 0.171875 -10.40625 L 2.5625 -10.40625 L 2.5625 -4.734375 C 2.5625 -1.800781 4.363281 0 7.296875 0 L 9.863281 0 L 9.863281 -3.207031 Z M 8.234375 -3.207031 "/></g></g></g><g fill="#000000" fill-opacity="1"><g transform="translate(123.53124, 30.023172)"><g><path d="M 14.644531 -6.683594 C 14.644531 -10.527344 11.835938 -13.683594 7.742188 -13.683594 C 3.796875 -13.683594 0.839844 -10.652344 0.839844 -6.65625 C 0.839844 -2.664062 3.820312 0.394531 7.742188 0.394531 C 10.847656 0.394531 13.386719 -1.453125 14.351562 -4.363281 L 10.578125 -4.363281 C 10.035156 -3.402344 9 -2.8125 7.742188 -2.8125 C 5.992188 -2.8125 4.808594 -3.820312 4.488281 -5.644531 L 14.570312 -5.644531 C 14.621094 -5.992188 14.644531 -6.335938 14.644531 -6.683594 Z M 7.742188 -10.601562 C 9.371094 -10.601562 10.527344 -9.714844 11.046875 -8.085938 L 4.585938 -8.085938 C 5.003906 -9.664062 6.140625 -10.601562 7.742188 -10.601562 Z M 7.742188 -10.601562 "/></g></g></g><g fill="#000000" fill-opacity="1"><g transform="translate(139.006893, 30.023172)"><g><path d="M 7.914062 0.394531 C 11.390625 0.394531 14.128906 -1.875 14.746094 -5.226562 L 11.121094 -5.226562 C 10.503906 -3.796875 9.371094 -3.007812 7.914062 -3.007812 C 5.992188 -3.007812 4.488281 -4.609375 4.488281 -6.65625 C 4.488281 -8.726562 5.964844 -10.304688 7.914062 -10.304688 C 9.34375 -10.304688 10.554688 -9.515625 11.121094 -8.210938 L 14.695312 -8.210938 C 14.054688 -11.488281 11.390625 -13.683594 7.9375 -13.683594 C 3.894531 -13.683594 0.839844 -10.675781 0.839844 -6.683594 C 0.839844 -2.6875 3.894531 0.394531 7.914062 0.394531 Z M 7.914062 0.394531 "/></g></g></g><g fill="#000000" fill-opacity="1"><g transform="translate(154.40862, 30.023172)"><g><path d="M 9.34375 -13.609375 C 7.742188 -13.609375 6.335938 -13.019531 5.324219 -12.058594 L 5.324219 -18.097656 L 1.726562 -18.097656 L 1.726562 0 L 5.324219 0 L 5.324219 -6.976562 C 5.324219 -9.148438 6.507812 -10.453125 8.308594 -10.453125 C 9.910156 -10.453125 10.625 -9.46875 10.625 -7.472656 L 10.625 0 L 14.226562 0 L 14.226562 -8.085938 C 14.226562 -11.464844 12.351562 -13.609375 9.34375 -13.609375 Z M 9.34375 -13.609375 "/></g></g></g></svg>